M48
;DRILL file {KiCad 4.0.4-stable} date 01/07/18 11:17:10
;FORMAT={-:-/ absolute / metric / decimal}
FMAT,2
METRIC,TZ
T1C0.400
T2C1.000
%
G90
G05
M71
T1
X149.352Y-56.388
X149.352Y-67.564
X149.352Y-80.772
X149.352Y-101.092
X149.352Y-110.744
X149.352Y-122.936
X149.352Y-133.604
X149.352Y-146.812
X150.876Y-85.344
X151.384Y-53.34
X151.384Y-68.58
X151.384Y-76.708
X151.384Y-119.38
X151.384Y-134.62
X151.384Y-142.748
X151.384Y-151.384
X151.892Y-47.752
X151.892Y-152.4
X152.4Y-52.324
X152.908Y-85.852
X152.908Y-101.6
X152.908Y-109.728
X152.908Y-117.856
X154.432Y-48.768
X154.432Y-66.548
X154.432Y-80.772
X154.432Y-89.916
X154.432Y-114.3
X154.432Y-143.256
T2
X149.352Y-40.132
X149.352Y-157.988
X151.892Y-40.132
X151.892Y-157.988
X154.432Y-40.132
X154.432Y-157.988
T0
M30
