G04 #@! TF.FileFunction,Legend,Top*
%FSLAX46Y46*%
G04 Gerber Fmt 4.6, Leading zero omitted, Abs format (unit mm)*
G04 Created by KiCad (PCBNEW 4.0.4-stable) date 01/07/18 11:22:15*
%MOMM*%
%LPD*%
G01*
G04 APERTURE LIST*
%ADD10C,0.100000*%
%ADD11C,0.200000*%
%ADD12C,0.300000*%
%ADD13C,0.120000*%
%ADD14C,0.150000*%
G04 APERTURE END LIST*
D10*
D11*
X151892000Y-151638000D02*
X151892000Y-157988000D01*
X154940000Y-151638000D02*
X151892000Y-151638000D01*
X151130000Y-151638000D02*
X148844000Y-151638000D01*
X151130000Y-118618000D02*
X151130000Y-151638000D01*
X149098000Y-118618000D02*
X151130000Y-118618000D01*
X152908000Y-118618000D02*
X154940000Y-118618000D01*
X152908000Y-85598000D02*
X152908000Y-118618000D01*
X154940000Y-85598000D02*
X152908000Y-85598000D01*
X151130000Y-85598000D02*
X149098000Y-85598000D01*
X151130000Y-52578000D02*
X151130000Y-85598000D01*
X149352000Y-52578000D02*
X151130000Y-52578000D01*
X151892000Y-52578000D02*
X151892000Y-40640000D01*
X155194000Y-52578000D02*
X151892000Y-52578000D01*
D12*
X148530571Y-162266285D02*
X148530571Y-162980571D01*
X149244857Y-163052000D01*
X149173429Y-162980571D01*
X149102000Y-162837714D01*
X149102000Y-162480571D01*
X149173429Y-162337714D01*
X149244857Y-162266285D01*
X149387714Y-162194857D01*
X149744857Y-162194857D01*
X149887714Y-162266285D01*
X149959143Y-162337714D01*
X150030571Y-162480571D01*
X150030571Y-162837714D01*
X149959143Y-162980571D01*
X149887714Y-163052000D01*
X149030571Y-161694857D02*
X150030571Y-161337714D01*
X149030571Y-160980572D01*
X153682000Y-163194857D02*
X153610571Y-163337714D01*
X153610571Y-163552000D01*
X153682000Y-163766285D01*
X153824857Y-163909143D01*
X153967714Y-163980571D01*
X154253429Y-164052000D01*
X154467714Y-164052000D01*
X154753429Y-163980571D01*
X154896286Y-163909143D01*
X155039143Y-163766285D01*
X155110571Y-163552000D01*
X155110571Y-163409143D01*
X155039143Y-163194857D01*
X154967714Y-163123428D01*
X154467714Y-163123428D01*
X154467714Y-163409143D01*
X155110571Y-162480571D02*
X153610571Y-162480571D01*
X155110571Y-161623428D01*
X153610571Y-161623428D01*
X155110571Y-160909142D02*
X153610571Y-160909142D01*
X153610571Y-160551999D01*
X153682000Y-160337714D01*
X153824857Y-160194856D01*
X153967714Y-160123428D01*
X154253429Y-160051999D01*
X154467714Y-160051999D01*
X154753429Y-160123428D01*
X154896286Y-160194856D01*
X155039143Y-160337714D01*
X155110571Y-160551999D01*
X155110571Y-160909142D01*
D13*
X148022000Y-38692000D02*
X155762000Y-38692000D01*
X155762000Y-38692000D02*
X155762000Y-36032000D01*
X155762000Y-36032000D02*
X148022000Y-36032000D01*
X148022000Y-36032000D02*
X148022000Y-38692000D01*
X148972000Y-36032000D02*
X148972000Y-30032000D01*
X148972000Y-30032000D02*
X149732000Y-30032000D01*
X149732000Y-30032000D02*
X149732000Y-36032000D01*
X149032000Y-36032000D02*
X149032000Y-30032000D01*
X149152000Y-36032000D02*
X149152000Y-30032000D01*
X149272000Y-36032000D02*
X149272000Y-30032000D01*
X149392000Y-36032000D02*
X149392000Y-30032000D01*
X149512000Y-36032000D02*
X149512000Y-30032000D01*
X149632000Y-36032000D02*
X149632000Y-30032000D01*
X148972000Y-39022000D02*
X148972000Y-38692000D01*
X149732000Y-39022000D02*
X149732000Y-38692000D01*
X150622000Y-38692000D02*
X150622000Y-36032000D01*
X151512000Y-36032000D02*
X151512000Y-30032000D01*
X151512000Y-30032000D02*
X152272000Y-30032000D01*
X152272000Y-30032000D02*
X152272000Y-36032000D01*
X151512000Y-39089071D02*
X151512000Y-38692000D01*
X152272000Y-39089071D02*
X152272000Y-38692000D01*
X153162000Y-38692000D02*
X153162000Y-36032000D01*
X154052000Y-36032000D02*
X154052000Y-30032000D01*
X154052000Y-30032000D02*
X154812000Y-30032000D01*
X154812000Y-30032000D02*
X154812000Y-36032000D01*
X154052000Y-39089071D02*
X154052000Y-38692000D01*
X154812000Y-39089071D02*
X154812000Y-38692000D01*
X149352000Y-41402000D02*
X148082000Y-41402000D01*
X148082000Y-41402000D02*
X148082000Y-40132000D01*
X150880000Y-46212000D02*
X150880000Y-44212000D01*
X148840000Y-44212000D02*
X148840000Y-46212000D01*
X152892000Y-78228000D02*
X150892000Y-78228000D01*
X150892000Y-80268000D02*
X152892000Y-80268000D01*
X152892000Y-111248000D02*
X150892000Y-111248000D01*
X150892000Y-113288000D02*
X152892000Y-113288000D01*
X152892000Y-144268000D02*
X150892000Y-144268000D01*
X150892000Y-146308000D02*
X152892000Y-146308000D01*
X153362000Y-46212000D02*
X153362000Y-44212000D01*
X155502000Y-44212000D02*
X155502000Y-46212000D01*
X148790000Y-73136000D02*
X148790000Y-71136000D01*
X150930000Y-71136000D02*
X150930000Y-73136000D01*
X152854000Y-106664000D02*
X152854000Y-104664000D01*
X154994000Y-104664000D02*
X154994000Y-106664000D01*
X148790000Y-139176000D02*
X148790000Y-137176000D01*
X150930000Y-137176000D02*
X150930000Y-139176000D01*
X148022000Y-159448000D02*
X150622000Y-159448000D01*
X150622000Y-159448000D02*
X150622000Y-168078000D01*
X150622000Y-168078000D02*
X148022000Y-168078000D01*
X148022000Y-168078000D02*
X148022000Y-159448000D01*
X148972000Y-159018000D02*
X148972000Y-159448000D01*
X149732000Y-159018000D02*
X149732000Y-159448000D01*
X148202000Y-159448000D02*
X148202000Y-168078000D01*
X148322000Y-159448000D02*
X148322000Y-168078000D01*
X148442000Y-159448000D02*
X148442000Y-168078000D01*
X148562000Y-159448000D02*
X148562000Y-168078000D01*
X148682000Y-159448000D02*
X148682000Y-168078000D01*
X148802000Y-159448000D02*
X148802000Y-168078000D01*
X148922000Y-159448000D02*
X148922000Y-168078000D01*
X149042000Y-159448000D02*
X149042000Y-168078000D01*
X149162000Y-159448000D02*
X149162000Y-168078000D01*
X149282000Y-159448000D02*
X149282000Y-168078000D01*
X149402000Y-159448000D02*
X149402000Y-168078000D01*
X149522000Y-159448000D02*
X149522000Y-168078000D01*
X149642000Y-159448000D02*
X149642000Y-168078000D01*
X149762000Y-159448000D02*
X149762000Y-168078000D01*
X149882000Y-159448000D02*
X149882000Y-168078000D01*
X150002000Y-159448000D02*
X150002000Y-168078000D01*
X150122000Y-159448000D02*
X150122000Y-168078000D01*
X150242000Y-159448000D02*
X150242000Y-168078000D01*
X150362000Y-159448000D02*
X150362000Y-168078000D01*
X150482000Y-159448000D02*
X150482000Y-168078000D01*
X150602000Y-159448000D02*
X150602000Y-168078000D01*
X150722000Y-159448000D02*
X150722000Y-168078000D01*
X150622000Y-159448000D02*
X153162000Y-159448000D01*
X153162000Y-159448000D02*
X153162000Y-168078000D01*
X153162000Y-168078000D02*
X150622000Y-168078000D01*
X150622000Y-168078000D02*
X150622000Y-159448000D01*
X151512000Y-159018000D02*
X151512000Y-159448000D01*
X152272000Y-159018000D02*
X152272000Y-159448000D01*
X153162000Y-159448000D02*
X155762000Y-159448000D01*
X155762000Y-159448000D02*
X155762000Y-168078000D01*
X155762000Y-168078000D02*
X153162000Y-168078000D01*
X153162000Y-168078000D02*
X153162000Y-159448000D01*
X154052000Y-159018000D02*
X154052000Y-159448000D01*
X154812000Y-159018000D02*
X154812000Y-159448000D01*
X148082000Y-157988000D02*
X148082000Y-156718000D01*
X148082000Y-156718000D02*
X149352000Y-156718000D01*
X155266000Y-57876000D02*
X155266000Y-64976000D01*
X151566000Y-57876000D02*
X151566000Y-64976000D01*
X155266000Y-57876000D02*
X151566000Y-57876000D01*
X155266000Y-68036000D02*
X155266000Y-75136000D01*
X151566000Y-68036000D02*
X151566000Y-75136000D01*
X155266000Y-68036000D02*
X151566000Y-68036000D01*
X152218000Y-101564000D02*
X152218000Y-108664000D01*
X148518000Y-101564000D02*
X148518000Y-108664000D01*
X152218000Y-101564000D02*
X148518000Y-101564000D01*
X155266000Y-134076000D02*
X155266000Y-141176000D01*
X151566000Y-134076000D02*
X151566000Y-141176000D01*
X155266000Y-134076000D02*
X151566000Y-134076000D01*
D14*
X151153905Y-37790381D02*
X151153905Y-36790381D01*
X151534858Y-36790381D01*
X151630096Y-36838000D01*
X151677715Y-36885619D01*
X151725334Y-36980857D01*
X151725334Y-37123714D01*
X151677715Y-37218952D01*
X151630096Y-37266571D01*
X151534858Y-37314190D01*
X151153905Y-37314190D01*
X152677715Y-37790381D02*
X152106286Y-37790381D01*
X152392000Y-37790381D02*
X152392000Y-36790381D01*
X152296762Y-36933238D01*
X152201524Y-37028476D01*
X152106286Y-37076095D01*
X150217143Y-45378666D02*
X150264762Y-45426285D01*
X150312381Y-45569142D01*
X150312381Y-45664380D01*
X150264762Y-45807238D01*
X150169524Y-45902476D01*
X150074286Y-45950095D01*
X149883810Y-45997714D01*
X149740952Y-45997714D01*
X149550476Y-45950095D01*
X149455238Y-45902476D01*
X149360000Y-45807238D01*
X149312381Y-45664380D01*
X149312381Y-45569142D01*
X149360000Y-45426285D01*
X149407619Y-45378666D01*
X149312381Y-44473904D02*
X149312381Y-44950095D01*
X149788571Y-44997714D01*
X149740952Y-44950095D01*
X149693333Y-44854857D01*
X149693333Y-44616761D01*
X149740952Y-44521523D01*
X149788571Y-44473904D01*
X149883810Y-44426285D01*
X150121905Y-44426285D01*
X150217143Y-44473904D01*
X150264762Y-44521523D01*
X150312381Y-44616761D01*
X150312381Y-44854857D01*
X150264762Y-44950095D01*
X150217143Y-44997714D01*
X151185619Y-45330857D02*
X151138000Y-45283238D01*
X151090381Y-45188000D01*
X151090381Y-44949904D01*
X151138000Y-44854666D01*
X151185619Y-44807047D01*
X151280857Y-44759428D01*
X151376095Y-44759428D01*
X151518952Y-44807047D01*
X152090381Y-45378476D01*
X152090381Y-44759428D01*
X151185619Y-44378476D02*
X151138000Y-44330857D01*
X151090381Y-44235619D01*
X151090381Y-43997523D01*
X151138000Y-43902285D01*
X151185619Y-43854666D01*
X151280857Y-43807047D01*
X151376095Y-43807047D01*
X151518952Y-43854666D01*
X152090381Y-44426095D01*
X152090381Y-43807047D01*
X151423714Y-42949904D02*
X152090381Y-42949904D01*
X151423714Y-43378476D02*
X151947524Y-43378476D01*
X152042762Y-43330857D01*
X152090381Y-43235619D01*
X152090381Y-43092761D01*
X152042762Y-42997523D01*
X151995143Y-42949904D01*
X151566571Y-42140380D02*
X151566571Y-42473714D01*
X152090381Y-42473714D02*
X151090381Y-42473714D01*
X151090381Y-41997523D01*
X151725334Y-79605143D02*
X151677715Y-79652762D01*
X151534858Y-79700381D01*
X151439620Y-79700381D01*
X151296762Y-79652762D01*
X151201524Y-79557524D01*
X151153905Y-79462286D01*
X151106286Y-79271810D01*
X151106286Y-79128952D01*
X151153905Y-78938476D01*
X151201524Y-78843238D01*
X151296762Y-78748000D01*
X151439620Y-78700381D01*
X151534858Y-78700381D01*
X151677715Y-78748000D01*
X151725334Y-78795619D01*
X152582477Y-78700381D02*
X152392000Y-78700381D01*
X152296762Y-78748000D01*
X152249143Y-78795619D01*
X152153905Y-78938476D01*
X152106286Y-79128952D01*
X152106286Y-79509905D01*
X152153905Y-79605143D01*
X152201524Y-79652762D01*
X152296762Y-79700381D01*
X152487239Y-79700381D01*
X152582477Y-79652762D01*
X152630096Y-79605143D01*
X152677715Y-79509905D01*
X152677715Y-79271810D01*
X152630096Y-79176571D01*
X152582477Y-79128952D01*
X152487239Y-79081333D01*
X152296762Y-79081333D01*
X152201524Y-79128952D01*
X152153905Y-79176571D01*
X152106286Y-79271810D01*
X150249143Y-77017619D02*
X150296762Y-76970000D01*
X150392000Y-76922381D01*
X150630096Y-76922381D01*
X150725334Y-76970000D01*
X150772953Y-77017619D01*
X150820572Y-77112857D01*
X150820572Y-77208095D01*
X150772953Y-77350952D01*
X150201524Y-77922381D01*
X150820572Y-77922381D01*
X151201524Y-77017619D02*
X151249143Y-76970000D01*
X151344381Y-76922381D01*
X151582477Y-76922381D01*
X151677715Y-76970000D01*
X151725334Y-77017619D01*
X151772953Y-77112857D01*
X151772953Y-77208095D01*
X151725334Y-77350952D01*
X151153905Y-77922381D01*
X151772953Y-77922381D01*
X152630096Y-77255714D02*
X152630096Y-77922381D01*
X152201524Y-77255714D02*
X152201524Y-77779524D01*
X152249143Y-77874762D01*
X152344381Y-77922381D01*
X152487239Y-77922381D01*
X152582477Y-77874762D01*
X152630096Y-77827143D01*
X153439620Y-77398571D02*
X153106286Y-77398571D01*
X153106286Y-77922381D02*
X153106286Y-76922381D01*
X153582477Y-76922381D01*
X151725334Y-112752143D02*
X151677715Y-112799762D01*
X151534858Y-112847381D01*
X151439620Y-112847381D01*
X151296762Y-112799762D01*
X151201524Y-112704524D01*
X151153905Y-112609286D01*
X151106286Y-112418810D01*
X151106286Y-112275952D01*
X151153905Y-112085476D01*
X151201524Y-111990238D01*
X151296762Y-111895000D01*
X151439620Y-111847381D01*
X151534858Y-111847381D01*
X151677715Y-111895000D01*
X151725334Y-111942619D01*
X152058667Y-111847381D02*
X152725334Y-111847381D01*
X152296762Y-112847381D01*
X150249143Y-113815619D02*
X150296762Y-113768000D01*
X150392000Y-113720381D01*
X150630096Y-113720381D01*
X150725334Y-113768000D01*
X150772953Y-113815619D01*
X150820572Y-113910857D01*
X150820572Y-114006095D01*
X150772953Y-114148952D01*
X150201524Y-114720381D01*
X150820572Y-114720381D01*
X151201524Y-113815619D02*
X151249143Y-113768000D01*
X151344381Y-113720381D01*
X151582477Y-113720381D01*
X151677715Y-113768000D01*
X151725334Y-113815619D01*
X151772953Y-113910857D01*
X151772953Y-114006095D01*
X151725334Y-114148952D01*
X151153905Y-114720381D01*
X151772953Y-114720381D01*
X152630096Y-114053714D02*
X152630096Y-114720381D01*
X152201524Y-114053714D02*
X152201524Y-114577524D01*
X152249143Y-114672762D01*
X152344381Y-114720381D01*
X152487239Y-114720381D01*
X152582477Y-114672762D01*
X152630096Y-114625143D01*
X153439620Y-114196571D02*
X153106286Y-114196571D01*
X153106286Y-114720381D02*
X153106286Y-113720381D01*
X153582477Y-113720381D01*
X151725334Y-145645143D02*
X151677715Y-145692762D01*
X151534858Y-145740381D01*
X151439620Y-145740381D01*
X151296762Y-145692762D01*
X151201524Y-145597524D01*
X151153905Y-145502286D01*
X151106286Y-145311810D01*
X151106286Y-145168952D01*
X151153905Y-144978476D01*
X151201524Y-144883238D01*
X151296762Y-144788000D01*
X151439620Y-144740381D01*
X151534858Y-144740381D01*
X151677715Y-144788000D01*
X151725334Y-144835619D01*
X152296762Y-145168952D02*
X152201524Y-145121333D01*
X152153905Y-145073714D01*
X152106286Y-144978476D01*
X152106286Y-144930857D01*
X152153905Y-144835619D01*
X152201524Y-144788000D01*
X152296762Y-144740381D01*
X152487239Y-144740381D01*
X152582477Y-144788000D01*
X152630096Y-144835619D01*
X152677715Y-144930857D01*
X152677715Y-144978476D01*
X152630096Y-145073714D01*
X152582477Y-145121333D01*
X152487239Y-145168952D01*
X152296762Y-145168952D01*
X152201524Y-145216571D01*
X152153905Y-145264190D01*
X152106286Y-145359429D01*
X152106286Y-145549905D01*
X152153905Y-145645143D01*
X152201524Y-145692762D01*
X152296762Y-145740381D01*
X152487239Y-145740381D01*
X152582477Y-145692762D01*
X152630096Y-145645143D01*
X152677715Y-145549905D01*
X152677715Y-145359429D01*
X152630096Y-145264190D01*
X152582477Y-145216571D01*
X152487239Y-145168952D01*
X150249143Y-142803619D02*
X150296762Y-142756000D01*
X150392000Y-142708381D01*
X150630096Y-142708381D01*
X150725334Y-142756000D01*
X150772953Y-142803619D01*
X150820572Y-142898857D01*
X150820572Y-142994095D01*
X150772953Y-143136952D01*
X150201524Y-143708381D01*
X150820572Y-143708381D01*
X151201524Y-142803619D02*
X151249143Y-142756000D01*
X151344381Y-142708381D01*
X151582477Y-142708381D01*
X151677715Y-142756000D01*
X151725334Y-142803619D01*
X151772953Y-142898857D01*
X151772953Y-142994095D01*
X151725334Y-143136952D01*
X151153905Y-143708381D01*
X151772953Y-143708381D01*
X152630096Y-143041714D02*
X152630096Y-143708381D01*
X152201524Y-143041714D02*
X152201524Y-143565524D01*
X152249143Y-143660762D01*
X152344381Y-143708381D01*
X152487239Y-143708381D01*
X152582477Y-143660762D01*
X152630096Y-143613143D01*
X153439620Y-143184571D02*
X153106286Y-143184571D01*
X153106286Y-143708381D02*
X153106286Y-142708381D01*
X153582477Y-142708381D01*
X151709381Y-53316095D02*
X150709381Y-53316095D01*
X150709381Y-52935142D01*
X150757000Y-52839904D01*
X150804619Y-52792285D01*
X150899857Y-52744666D01*
X151042714Y-52744666D01*
X151137952Y-52792285D01*
X151185571Y-52839904D01*
X151233190Y-52935142D01*
X151233190Y-53316095D01*
X150804619Y-52363714D02*
X150757000Y-52316095D01*
X150709381Y-52220857D01*
X150709381Y-51982761D01*
X150757000Y-51887523D01*
X150804619Y-51839904D01*
X150899857Y-51792285D01*
X150995095Y-51792285D01*
X151137952Y-51839904D01*
X151709381Y-52411333D01*
X151709381Y-51792285D01*
X153614381Y-53316095D02*
X152614381Y-53316095D01*
X152614381Y-52935142D01*
X152662000Y-52839904D01*
X152709619Y-52792285D01*
X152804857Y-52744666D01*
X152947714Y-52744666D01*
X153042952Y-52792285D01*
X153090571Y-52839904D01*
X153138190Y-52935142D01*
X153138190Y-53316095D01*
X152614381Y-52411333D02*
X152614381Y-51792285D01*
X152995333Y-52125619D01*
X152995333Y-51982761D01*
X153042952Y-51887523D01*
X153090571Y-51839904D01*
X153185810Y-51792285D01*
X153423905Y-51792285D01*
X153519143Y-51839904D01*
X153566762Y-51887523D01*
X153614381Y-51982761D01*
X153614381Y-52268476D01*
X153566762Y-52363714D01*
X153519143Y-52411333D01*
X151582381Y-86336095D02*
X150582381Y-86336095D01*
X150582381Y-85955142D01*
X150630000Y-85859904D01*
X150677619Y-85812285D01*
X150772857Y-85764666D01*
X150915714Y-85764666D01*
X151010952Y-85812285D01*
X151058571Y-85859904D01*
X151106190Y-85955142D01*
X151106190Y-86336095D01*
X150915714Y-84907523D02*
X151582381Y-84907523D01*
X150534762Y-85145619D02*
X151249048Y-85383714D01*
X151249048Y-84764666D01*
X153487381Y-86336095D02*
X152487381Y-86336095D01*
X152487381Y-85955142D01*
X152535000Y-85859904D01*
X152582619Y-85812285D01*
X152677857Y-85764666D01*
X152820714Y-85764666D01*
X152915952Y-85812285D01*
X152963571Y-85859904D01*
X153011190Y-85955142D01*
X153011190Y-86336095D01*
X152487381Y-84859904D02*
X152487381Y-85336095D01*
X152963571Y-85383714D01*
X152915952Y-85336095D01*
X152868333Y-85240857D01*
X152868333Y-85002761D01*
X152915952Y-84907523D01*
X152963571Y-84859904D01*
X153058810Y-84812285D01*
X153296905Y-84812285D01*
X153392143Y-84859904D01*
X153439762Y-84907523D01*
X153487381Y-85002761D01*
X153487381Y-85240857D01*
X153439762Y-85336095D01*
X153392143Y-85383714D01*
X151455381Y-119356095D02*
X150455381Y-119356095D01*
X150455381Y-118975142D01*
X150503000Y-118879904D01*
X150550619Y-118832285D01*
X150645857Y-118784666D01*
X150788714Y-118784666D01*
X150883952Y-118832285D01*
X150931571Y-118879904D01*
X150979190Y-118975142D01*
X150979190Y-119356095D01*
X150455381Y-117927523D02*
X150455381Y-118118000D01*
X150503000Y-118213238D01*
X150550619Y-118260857D01*
X150693476Y-118356095D01*
X150883952Y-118403714D01*
X151264905Y-118403714D01*
X151360143Y-118356095D01*
X151407762Y-118308476D01*
X151455381Y-118213238D01*
X151455381Y-118022761D01*
X151407762Y-117927523D01*
X151360143Y-117879904D01*
X151264905Y-117832285D01*
X151026810Y-117832285D01*
X150931571Y-117879904D01*
X150883952Y-117927523D01*
X150836333Y-118022761D01*
X150836333Y-118213238D01*
X150883952Y-118308476D01*
X150931571Y-118356095D01*
X151026810Y-118403714D01*
X153614381Y-119356095D02*
X152614381Y-119356095D01*
X152614381Y-118975142D01*
X152662000Y-118879904D01*
X152709619Y-118832285D01*
X152804857Y-118784666D01*
X152947714Y-118784666D01*
X153042952Y-118832285D01*
X153090571Y-118879904D01*
X153138190Y-118975142D01*
X153138190Y-119356095D01*
X152614381Y-118451333D02*
X152614381Y-117784666D01*
X153614381Y-118213238D01*
X151582381Y-152376095D02*
X150582381Y-152376095D01*
X150582381Y-151995142D01*
X150630000Y-151899904D01*
X150677619Y-151852285D01*
X150772857Y-151804666D01*
X150915714Y-151804666D01*
X151010952Y-151852285D01*
X151058571Y-151899904D01*
X151106190Y-151995142D01*
X151106190Y-152376095D01*
X151010952Y-151233238D02*
X150963333Y-151328476D01*
X150915714Y-151376095D01*
X150820476Y-151423714D01*
X150772857Y-151423714D01*
X150677619Y-151376095D01*
X150630000Y-151328476D01*
X150582381Y-151233238D01*
X150582381Y-151042761D01*
X150630000Y-150947523D01*
X150677619Y-150899904D01*
X150772857Y-150852285D01*
X150820476Y-150852285D01*
X150915714Y-150899904D01*
X150963333Y-150947523D01*
X151010952Y-151042761D01*
X151010952Y-151233238D01*
X151058571Y-151328476D01*
X151106190Y-151376095D01*
X151201429Y-151423714D01*
X151391905Y-151423714D01*
X151487143Y-151376095D01*
X151534762Y-151328476D01*
X151582381Y-151233238D01*
X151582381Y-151042761D01*
X151534762Y-150947523D01*
X151487143Y-150899904D01*
X151391905Y-150852285D01*
X151201429Y-150852285D01*
X151106190Y-150899904D01*
X151058571Y-150947523D01*
X151010952Y-151042761D01*
X153487381Y-152376095D02*
X152487381Y-152376095D01*
X152487381Y-151995142D01*
X152535000Y-151899904D01*
X152582619Y-151852285D01*
X152677857Y-151804666D01*
X152820714Y-151804666D01*
X152915952Y-151852285D01*
X152963571Y-151899904D01*
X153011190Y-151995142D01*
X153011190Y-152376095D01*
X153487381Y-151328476D02*
X153487381Y-151138000D01*
X153439762Y-151042761D01*
X153392143Y-150995142D01*
X153249286Y-150899904D01*
X153058810Y-150852285D01*
X152677857Y-150852285D01*
X152582619Y-150899904D01*
X152535000Y-150947523D01*
X152487381Y-151042761D01*
X152487381Y-151233238D01*
X152535000Y-151328476D01*
X152582619Y-151376095D01*
X152677857Y-151423714D01*
X152915952Y-151423714D01*
X153011190Y-151376095D01*
X153058810Y-151328476D01*
X153106429Y-151233238D01*
X153106429Y-151042761D01*
X153058810Y-150947523D01*
X153011190Y-150899904D01*
X152915952Y-150852285D01*
X154757381Y-45378666D02*
X154281190Y-45712000D01*
X154757381Y-45950095D02*
X153757381Y-45950095D01*
X153757381Y-45569142D01*
X153805000Y-45473904D01*
X153852619Y-45426285D01*
X153947857Y-45378666D01*
X154090714Y-45378666D01*
X154185952Y-45426285D01*
X154233571Y-45473904D01*
X154281190Y-45569142D01*
X154281190Y-45950095D01*
X154757381Y-44426285D02*
X154757381Y-44997714D01*
X154757381Y-44712000D02*
X153757381Y-44712000D01*
X153900238Y-44807238D01*
X153995476Y-44902476D01*
X154043095Y-44997714D01*
X152106381Y-47958285D02*
X152106381Y-48434476D01*
X152582571Y-48482095D01*
X152534952Y-48434476D01*
X152487333Y-48339238D01*
X152487333Y-48101142D01*
X152534952Y-48005904D01*
X152582571Y-47958285D01*
X152677810Y-47910666D01*
X152915905Y-47910666D01*
X153011143Y-47958285D01*
X153058762Y-48005904D01*
X153106381Y-48101142D01*
X153106381Y-48339238D01*
X153058762Y-48434476D01*
X153011143Y-48482095D01*
X152106381Y-47291619D02*
X152106381Y-47196380D01*
X152154000Y-47101142D01*
X152201619Y-47053523D01*
X152296857Y-47005904D01*
X152487333Y-46958285D01*
X152725429Y-46958285D01*
X152915905Y-47005904D01*
X153011143Y-47053523D01*
X153058762Y-47101142D01*
X153106381Y-47196380D01*
X153106381Y-47291619D01*
X153058762Y-47386857D01*
X153011143Y-47434476D01*
X152915905Y-47482095D01*
X152725429Y-47529714D01*
X152487333Y-47529714D01*
X152296857Y-47482095D01*
X152201619Y-47434476D01*
X152154000Y-47386857D01*
X152106381Y-47291619D01*
X152106381Y-46339238D02*
X152106381Y-46243999D01*
X152154000Y-46148761D01*
X152201619Y-46101142D01*
X152296857Y-46053523D01*
X152487333Y-46005904D01*
X152725429Y-46005904D01*
X152915905Y-46053523D01*
X153011143Y-46101142D01*
X153058762Y-46148761D01*
X153106381Y-46243999D01*
X153106381Y-46339238D01*
X153058762Y-46434476D01*
X153011143Y-46482095D01*
X152915905Y-46529714D01*
X152725429Y-46577333D01*
X152487333Y-46577333D01*
X152296857Y-46529714D01*
X152201619Y-46482095D01*
X152154000Y-46434476D01*
X152106381Y-46339238D01*
X150439381Y-72302666D02*
X149963190Y-72636000D01*
X150439381Y-72874095D02*
X149439381Y-72874095D01*
X149439381Y-72493142D01*
X149487000Y-72397904D01*
X149534619Y-72350285D01*
X149629857Y-72302666D01*
X149772714Y-72302666D01*
X149867952Y-72350285D01*
X149915571Y-72397904D01*
X149963190Y-72493142D01*
X149963190Y-72874095D01*
X149534619Y-71921714D02*
X149487000Y-71874095D01*
X149439381Y-71778857D01*
X149439381Y-71540761D01*
X149487000Y-71445523D01*
X149534619Y-71397904D01*
X149629857Y-71350285D01*
X149725095Y-71350285D01*
X149867952Y-71397904D01*
X150439381Y-71969333D01*
X150439381Y-71350285D01*
X150836381Y-72850285D02*
X150836381Y-73326476D01*
X151312571Y-73374095D01*
X151264952Y-73326476D01*
X151217333Y-73231238D01*
X151217333Y-72993142D01*
X151264952Y-72897904D01*
X151312571Y-72850285D01*
X151407810Y-72802666D01*
X151645905Y-72802666D01*
X151741143Y-72850285D01*
X151788762Y-72897904D01*
X151836381Y-72993142D01*
X151836381Y-73231238D01*
X151788762Y-73326476D01*
X151741143Y-73374095D01*
X150836381Y-72183619D02*
X150836381Y-72088380D01*
X150884000Y-71993142D01*
X150931619Y-71945523D01*
X151026857Y-71897904D01*
X151217333Y-71850285D01*
X151455429Y-71850285D01*
X151645905Y-71897904D01*
X151741143Y-71945523D01*
X151788762Y-71993142D01*
X151836381Y-72088380D01*
X151836381Y-72183619D01*
X151788762Y-72278857D01*
X151741143Y-72326476D01*
X151645905Y-72374095D01*
X151455429Y-72421714D01*
X151217333Y-72421714D01*
X151026857Y-72374095D01*
X150931619Y-72326476D01*
X150884000Y-72278857D01*
X150836381Y-72183619D01*
X150836381Y-71231238D02*
X150836381Y-71135999D01*
X150884000Y-71040761D01*
X150931619Y-70993142D01*
X151026857Y-70945523D01*
X151217333Y-70897904D01*
X151455429Y-70897904D01*
X151645905Y-70945523D01*
X151741143Y-70993142D01*
X151788762Y-71040761D01*
X151836381Y-71135999D01*
X151836381Y-71231238D01*
X151788762Y-71326476D01*
X151741143Y-71374095D01*
X151645905Y-71421714D01*
X151455429Y-71469333D01*
X151217333Y-71469333D01*
X151026857Y-71421714D01*
X150931619Y-71374095D01*
X150884000Y-71326476D01*
X150836381Y-71231238D01*
X154376381Y-105830666D02*
X153900190Y-106164000D01*
X154376381Y-106402095D02*
X153376381Y-106402095D01*
X153376381Y-106021142D01*
X153424000Y-105925904D01*
X153471619Y-105878285D01*
X153566857Y-105830666D01*
X153709714Y-105830666D01*
X153804952Y-105878285D01*
X153852571Y-105925904D01*
X153900190Y-106021142D01*
X153900190Y-106402095D01*
X153376381Y-105497333D02*
X153376381Y-104878285D01*
X153757333Y-105211619D01*
X153757333Y-105068761D01*
X153804952Y-104973523D01*
X153852571Y-104925904D01*
X153947810Y-104878285D01*
X154185905Y-104878285D01*
X154281143Y-104925904D01*
X154328762Y-104973523D01*
X154376381Y-105068761D01*
X154376381Y-105354476D01*
X154328762Y-105449714D01*
X154281143Y-105497333D01*
X151852381Y-106378285D02*
X151852381Y-106854476D01*
X152328571Y-106902095D01*
X152280952Y-106854476D01*
X152233333Y-106759238D01*
X152233333Y-106521142D01*
X152280952Y-106425904D01*
X152328571Y-106378285D01*
X152423810Y-106330666D01*
X152661905Y-106330666D01*
X152757143Y-106378285D01*
X152804762Y-106425904D01*
X152852381Y-106521142D01*
X152852381Y-106759238D01*
X152804762Y-106854476D01*
X152757143Y-106902095D01*
X151852381Y-105711619D02*
X151852381Y-105616380D01*
X151900000Y-105521142D01*
X151947619Y-105473523D01*
X152042857Y-105425904D01*
X152233333Y-105378285D01*
X152471429Y-105378285D01*
X152661905Y-105425904D01*
X152757143Y-105473523D01*
X152804762Y-105521142D01*
X152852381Y-105616380D01*
X152852381Y-105711619D01*
X152804762Y-105806857D01*
X152757143Y-105854476D01*
X152661905Y-105902095D01*
X152471429Y-105949714D01*
X152233333Y-105949714D01*
X152042857Y-105902095D01*
X151947619Y-105854476D01*
X151900000Y-105806857D01*
X151852381Y-105711619D01*
X151852381Y-104759238D02*
X151852381Y-104663999D01*
X151900000Y-104568761D01*
X151947619Y-104521142D01*
X152042857Y-104473523D01*
X152233333Y-104425904D01*
X152471429Y-104425904D01*
X152661905Y-104473523D01*
X152757143Y-104521142D01*
X152804762Y-104568761D01*
X152852381Y-104663999D01*
X152852381Y-104759238D01*
X152804762Y-104854476D01*
X152757143Y-104902095D01*
X152661905Y-104949714D01*
X152471429Y-104997333D01*
X152233333Y-104997333D01*
X152042857Y-104949714D01*
X151947619Y-104902095D01*
X151900000Y-104854476D01*
X151852381Y-104759238D01*
X150312381Y-138342666D02*
X149836190Y-138676000D01*
X150312381Y-138914095D02*
X149312381Y-138914095D01*
X149312381Y-138533142D01*
X149360000Y-138437904D01*
X149407619Y-138390285D01*
X149502857Y-138342666D01*
X149645714Y-138342666D01*
X149740952Y-138390285D01*
X149788571Y-138437904D01*
X149836190Y-138533142D01*
X149836190Y-138914095D01*
X149645714Y-137485523D02*
X150312381Y-137485523D01*
X149264762Y-137723619D02*
X149979048Y-137961714D01*
X149979048Y-137342666D01*
X150836381Y-138890285D02*
X150836381Y-139366476D01*
X151312571Y-139414095D01*
X151264952Y-139366476D01*
X151217333Y-139271238D01*
X151217333Y-139033142D01*
X151264952Y-138937904D01*
X151312571Y-138890285D01*
X151407810Y-138842666D01*
X151645905Y-138842666D01*
X151741143Y-138890285D01*
X151788762Y-138937904D01*
X151836381Y-139033142D01*
X151836381Y-139271238D01*
X151788762Y-139366476D01*
X151741143Y-139414095D01*
X150836381Y-138223619D02*
X150836381Y-138128380D01*
X150884000Y-138033142D01*
X150931619Y-137985523D01*
X151026857Y-137937904D01*
X151217333Y-137890285D01*
X151455429Y-137890285D01*
X151645905Y-137937904D01*
X151741143Y-137985523D01*
X151788762Y-138033142D01*
X151836381Y-138128380D01*
X151836381Y-138223619D01*
X151788762Y-138318857D01*
X151741143Y-138366476D01*
X151645905Y-138414095D01*
X151455429Y-138461714D01*
X151217333Y-138461714D01*
X151026857Y-138414095D01*
X150931619Y-138366476D01*
X150884000Y-138318857D01*
X150836381Y-138223619D01*
X150836381Y-137271238D02*
X150836381Y-137175999D01*
X150884000Y-137080761D01*
X150931619Y-137033142D01*
X151026857Y-136985523D01*
X151217333Y-136937904D01*
X151455429Y-136937904D01*
X151645905Y-136985523D01*
X151741143Y-137033142D01*
X151788762Y-137080761D01*
X151836381Y-137175999D01*
X151836381Y-137271238D01*
X151788762Y-137366476D01*
X151741143Y-137414095D01*
X151645905Y-137461714D01*
X151455429Y-137509333D01*
X151217333Y-137509333D01*
X151026857Y-137461714D01*
X150931619Y-137414095D01*
X150884000Y-137366476D01*
X150836381Y-137271238D01*
X150677714Y-155900381D02*
X150677714Y-154900381D01*
X151058667Y-154900381D01*
X151153905Y-154948000D01*
X151201524Y-154995619D01*
X151249143Y-155090857D01*
X151249143Y-155233714D01*
X151201524Y-155328952D01*
X151153905Y-155376571D01*
X151058667Y-155424190D01*
X150677714Y-155424190D01*
X152201524Y-155900381D02*
X151630095Y-155900381D01*
X151915809Y-155900381D02*
X151915809Y-154900381D01*
X151820571Y-155043238D01*
X151725333Y-155138476D01*
X151630095Y-155186095D01*
X152820571Y-154900381D02*
X152915810Y-154900381D01*
X153011048Y-154948000D01*
X153058667Y-154995619D01*
X153106286Y-155090857D01*
X153153905Y-155281333D01*
X153153905Y-155519429D01*
X153106286Y-155709905D01*
X153058667Y-155805143D01*
X153011048Y-155852762D01*
X152915810Y-155900381D01*
X152820571Y-155900381D01*
X152725333Y-155852762D01*
X152677714Y-155805143D01*
X152630095Y-155709905D01*
X152582476Y-155519429D01*
X152582476Y-155281333D01*
X152630095Y-155090857D01*
X152677714Y-154995619D01*
X152725333Y-154948000D01*
X152820571Y-154900381D01*
X153773143Y-62142666D02*
X153820762Y-62190285D01*
X153868381Y-62333142D01*
X153868381Y-62428380D01*
X153820762Y-62571238D01*
X153725524Y-62666476D01*
X153630286Y-62714095D01*
X153439810Y-62761714D01*
X153296952Y-62761714D01*
X153106476Y-62714095D01*
X153011238Y-62666476D01*
X152916000Y-62571238D01*
X152868381Y-62428380D01*
X152868381Y-62333142D01*
X152916000Y-62190285D01*
X152963619Y-62142666D01*
X153868381Y-61190285D02*
X153868381Y-61761714D01*
X153868381Y-61476000D02*
X152868381Y-61476000D01*
X153011238Y-61571238D01*
X153106476Y-61666476D01*
X153154095Y-61761714D01*
X152027143Y-56443619D02*
X152074762Y-56396000D01*
X152170000Y-56348381D01*
X152408096Y-56348381D01*
X152503334Y-56396000D01*
X152550953Y-56443619D01*
X152598572Y-56538857D01*
X152598572Y-56634095D01*
X152550953Y-56776952D01*
X151979524Y-57348381D01*
X152598572Y-57348381D01*
X152979524Y-56443619D02*
X153027143Y-56396000D01*
X153122381Y-56348381D01*
X153360477Y-56348381D01*
X153455715Y-56396000D01*
X153503334Y-56443619D01*
X153550953Y-56538857D01*
X153550953Y-56634095D01*
X153503334Y-56776952D01*
X152931905Y-57348381D01*
X153550953Y-57348381D01*
X154408096Y-56681714D02*
X154408096Y-57348381D01*
X153979524Y-56681714D02*
X153979524Y-57205524D01*
X154027143Y-57300762D01*
X154122381Y-57348381D01*
X154265239Y-57348381D01*
X154360477Y-57300762D01*
X154408096Y-57253143D01*
X155217620Y-56824571D02*
X154884286Y-56824571D01*
X154884286Y-57348381D02*
X154884286Y-56348381D01*
X155360477Y-56348381D01*
X153773143Y-72302666D02*
X153820762Y-72350285D01*
X153868381Y-72493142D01*
X153868381Y-72588380D01*
X153820762Y-72731238D01*
X153725524Y-72826476D01*
X153630286Y-72874095D01*
X153439810Y-72921714D01*
X153296952Y-72921714D01*
X153106476Y-72874095D01*
X153011238Y-72826476D01*
X152916000Y-72731238D01*
X152868381Y-72588380D01*
X152868381Y-72493142D01*
X152916000Y-72350285D01*
X152963619Y-72302666D01*
X152963619Y-71921714D02*
X152916000Y-71874095D01*
X152868381Y-71778857D01*
X152868381Y-71540761D01*
X152916000Y-71445523D01*
X152963619Y-71397904D01*
X153058857Y-71350285D01*
X153154095Y-71350285D01*
X153296952Y-71397904D01*
X153868381Y-71969333D01*
X153868381Y-71350285D01*
X151773143Y-66603619D02*
X151820762Y-66556000D01*
X151916000Y-66508381D01*
X152154096Y-66508381D01*
X152249334Y-66556000D01*
X152296953Y-66603619D01*
X152344572Y-66698857D01*
X152344572Y-66794095D01*
X152296953Y-66936952D01*
X151725524Y-67508381D01*
X152344572Y-67508381D01*
X152725524Y-66603619D02*
X152773143Y-66556000D01*
X152868381Y-66508381D01*
X153106477Y-66508381D01*
X153201715Y-66556000D01*
X153249334Y-66603619D01*
X153296953Y-66698857D01*
X153296953Y-66794095D01*
X153249334Y-66936952D01*
X152677905Y-67508381D01*
X153296953Y-67508381D01*
X154154096Y-66841714D02*
X154154096Y-67508381D01*
X153725524Y-66841714D02*
X153725524Y-67365524D01*
X153773143Y-67460762D01*
X153868381Y-67508381D01*
X154011239Y-67508381D01*
X154106477Y-67460762D01*
X154154096Y-67413143D01*
X154963620Y-66984571D02*
X154630286Y-66984571D01*
X154630286Y-67508381D02*
X154630286Y-66508381D01*
X155106477Y-66508381D01*
X154075143Y-105830666D02*
X154122762Y-105878285D01*
X154170381Y-106021142D01*
X154170381Y-106116380D01*
X154122762Y-106259238D01*
X154027524Y-106354476D01*
X153932286Y-106402095D01*
X153741810Y-106449714D01*
X153598952Y-106449714D01*
X153408476Y-106402095D01*
X153313238Y-106354476D01*
X153218000Y-106259238D01*
X153170381Y-106116380D01*
X153170381Y-106021142D01*
X153218000Y-105878285D01*
X153265619Y-105830666D01*
X153170381Y-105497333D02*
X153170381Y-104878285D01*
X153551333Y-105211619D01*
X153551333Y-105068761D01*
X153598952Y-104973523D01*
X153646571Y-104925904D01*
X153741810Y-104878285D01*
X153979905Y-104878285D01*
X154075143Y-104925904D01*
X154122762Y-104973523D01*
X154170381Y-105068761D01*
X154170381Y-105354476D01*
X154122762Y-105449714D01*
X154075143Y-105497333D01*
X148979143Y-100131619D02*
X149026762Y-100084000D01*
X149122000Y-100036381D01*
X149360096Y-100036381D01*
X149455334Y-100084000D01*
X149502953Y-100131619D01*
X149550572Y-100226857D01*
X149550572Y-100322095D01*
X149502953Y-100464952D01*
X148931524Y-101036381D01*
X149550572Y-101036381D01*
X149931524Y-100131619D02*
X149979143Y-100084000D01*
X150074381Y-100036381D01*
X150312477Y-100036381D01*
X150407715Y-100084000D01*
X150455334Y-100131619D01*
X150502953Y-100226857D01*
X150502953Y-100322095D01*
X150455334Y-100464952D01*
X149883905Y-101036381D01*
X150502953Y-101036381D01*
X151360096Y-100369714D02*
X151360096Y-101036381D01*
X150931524Y-100369714D02*
X150931524Y-100893524D01*
X150979143Y-100988762D01*
X151074381Y-101036381D01*
X151217239Y-101036381D01*
X151312477Y-100988762D01*
X151360096Y-100941143D01*
X152169620Y-100512571D02*
X151836286Y-100512571D01*
X151836286Y-101036381D02*
X151836286Y-100036381D01*
X152312477Y-100036381D01*
X153773143Y-138342666D02*
X153820762Y-138390285D01*
X153868381Y-138533142D01*
X153868381Y-138628380D01*
X153820762Y-138771238D01*
X153725524Y-138866476D01*
X153630286Y-138914095D01*
X153439810Y-138961714D01*
X153296952Y-138961714D01*
X153106476Y-138914095D01*
X153011238Y-138866476D01*
X152916000Y-138771238D01*
X152868381Y-138628380D01*
X152868381Y-138533142D01*
X152916000Y-138390285D01*
X152963619Y-138342666D01*
X153201714Y-137485523D02*
X153868381Y-137485523D01*
X152820762Y-137723619D02*
X153535048Y-137961714D01*
X153535048Y-137342666D01*
X151773143Y-132135619D02*
X151820762Y-132088000D01*
X151916000Y-132040381D01*
X152154096Y-132040381D01*
X152249334Y-132088000D01*
X152296953Y-132135619D01*
X152344572Y-132230857D01*
X152344572Y-132326095D01*
X152296953Y-132468952D01*
X151725524Y-133040381D01*
X152344572Y-133040381D01*
X152725524Y-132135619D02*
X152773143Y-132088000D01*
X152868381Y-132040381D01*
X153106477Y-132040381D01*
X153201715Y-132088000D01*
X153249334Y-132135619D01*
X153296953Y-132230857D01*
X153296953Y-132326095D01*
X153249334Y-132468952D01*
X152677905Y-133040381D01*
X153296953Y-133040381D01*
X154154096Y-132373714D02*
X154154096Y-133040381D01*
X153725524Y-132373714D02*
X153725524Y-132897524D01*
X153773143Y-132992762D01*
X153868381Y-133040381D01*
X154011239Y-133040381D01*
X154106477Y-132992762D01*
X154154096Y-132945143D01*
X154963620Y-132516571D02*
X154630286Y-132516571D01*
X154630286Y-133040381D02*
X154630286Y-132040381D01*
X155106477Y-132040381D01*
M02*
