G04 #@! TF.FileFunction,Legend,Bot*
%FSLAX46Y46*%
G04 Gerber Fmt 4.6, Leading zero omitted, Abs format (unit mm)*
G04 Created by KiCad (PCBNEW 4.0.4-stable) date 01/07/18 11:22:15*
%MOMM*%
%LPD*%
G01*
G04 APERTURE LIST*
%ADD10C,0.100000*%
%ADD11C,0.200000*%
%ADD12C,0.300000*%
G04 APERTURE END LIST*
D10*
D11*
X151892000Y-52578000D02*
X155194000Y-52578000D01*
X151892000Y-40132000D02*
X151892000Y-52578000D01*
X151130000Y-52578000D02*
X149352000Y-52578000D01*
X151130000Y-85598000D02*
X151130000Y-52578000D01*
X149098000Y-85598000D02*
X151130000Y-85598000D01*
X152908000Y-85598000D02*
X154940000Y-85598000D01*
X152908000Y-118618000D02*
X152908000Y-85598000D01*
X154940000Y-118618000D02*
X152908000Y-118618000D01*
X151130000Y-118618000D02*
X149098000Y-118618000D01*
X151130000Y-151638000D02*
X151130000Y-118618000D01*
X148844000Y-151638000D02*
X151130000Y-151638000D01*
X151892000Y-151638000D02*
X154940000Y-151638000D01*
X151892000Y-157988000D02*
X151892000Y-151638000D01*
D12*
X155293143Y-98434287D02*
X155364571Y-98648573D01*
X155364571Y-99005716D01*
X155293143Y-99148573D01*
X155221714Y-99220002D01*
X155078857Y-99291430D01*
X154936000Y-99291430D01*
X154793143Y-99220002D01*
X154721714Y-99148573D01*
X154650286Y-99005716D01*
X154578857Y-98720002D01*
X154507429Y-98577144D01*
X154436000Y-98505716D01*
X154293143Y-98434287D01*
X154150286Y-98434287D01*
X154007429Y-98505716D01*
X153936000Y-98577144D01*
X153864571Y-98720002D01*
X153864571Y-99077144D01*
X153936000Y-99291430D01*
X154364571Y-99720001D02*
X154364571Y-100291430D01*
X153864571Y-99934287D02*
X155150286Y-99934287D01*
X155293143Y-100005715D01*
X155364571Y-100148573D01*
X155364571Y-100291430D01*
X155293143Y-101362858D02*
X155364571Y-101220001D01*
X155364571Y-100934287D01*
X155293143Y-100791430D01*
X155150286Y-100720001D01*
X154578857Y-100720001D01*
X154436000Y-100791430D01*
X154364571Y-100934287D01*
X154364571Y-101220001D01*
X154436000Y-101362858D01*
X154578857Y-101434287D01*
X154721714Y-101434287D01*
X154864571Y-100720001D01*
X154364571Y-101934287D02*
X155364571Y-102291430D01*
X154364571Y-102648572D01*
X155293143Y-103791429D02*
X155364571Y-103648572D01*
X155364571Y-103362858D01*
X155293143Y-103220001D01*
X155150286Y-103148572D01*
X154578857Y-103148572D01*
X154436000Y-103220001D01*
X154364571Y-103362858D01*
X154364571Y-103648572D01*
X154436000Y-103791429D01*
X154578857Y-103862858D01*
X154721714Y-103862858D01*
X154864571Y-103148572D01*
X154578857Y-106148572D02*
X154650286Y-106362858D01*
X154721714Y-106434286D01*
X154864571Y-106505715D01*
X155078857Y-106505715D01*
X155221714Y-106434286D01*
X155293143Y-106362858D01*
X155364571Y-106220000D01*
X155364571Y-105648572D01*
X153864571Y-105648572D01*
X153864571Y-106148572D01*
X153936000Y-106291429D01*
X154007429Y-106362858D01*
X154150286Y-106434286D01*
X154293143Y-106434286D01*
X154436000Y-106362858D01*
X154507429Y-106291429D01*
X154578857Y-106148572D01*
X154578857Y-105648572D01*
X155364571Y-107791429D02*
X154578857Y-107791429D01*
X154436000Y-107720000D01*
X154364571Y-107577143D01*
X154364571Y-107291429D01*
X154436000Y-107148572D01*
X155293143Y-107791429D02*
X155364571Y-107648572D01*
X155364571Y-107291429D01*
X155293143Y-107148572D01*
X155150286Y-107077143D01*
X155007429Y-107077143D01*
X154864571Y-107148572D01*
X154793143Y-107291429D01*
X154793143Y-107648572D01*
X154721714Y-107791429D01*
X155364571Y-108505715D02*
X154364571Y-108505715D01*
X154650286Y-108505715D02*
X154507429Y-108577143D01*
X154436000Y-108648572D01*
X154364571Y-108791429D01*
X154364571Y-108934286D01*
X154364571Y-109434286D02*
X155364571Y-109434286D01*
X154507429Y-109434286D02*
X154436000Y-109505714D01*
X154364571Y-109648572D01*
X154364571Y-109862857D01*
X154436000Y-110005714D01*
X154578857Y-110077143D01*
X155364571Y-110077143D01*
X155293143Y-111362857D02*
X155364571Y-111220000D01*
X155364571Y-110934286D01*
X155293143Y-110791429D01*
X155150286Y-110720000D01*
X154578857Y-110720000D01*
X154436000Y-110791429D01*
X154364571Y-110934286D01*
X154364571Y-111220000D01*
X154436000Y-111362857D01*
X154578857Y-111434286D01*
X154721714Y-111434286D01*
X154864571Y-110720000D01*
X154364571Y-111862857D02*
X154364571Y-112434286D01*
X153864571Y-112077143D02*
X155150286Y-112077143D01*
X155293143Y-112148571D01*
X155364571Y-112291429D01*
X155364571Y-112434286D01*
X154364571Y-112720000D02*
X154364571Y-113291429D01*
X153864571Y-112934286D02*
X155150286Y-112934286D01*
X155293143Y-113005714D01*
X155364571Y-113148572D01*
X155364571Y-113291429D01*
X154007429Y-114862857D02*
X153936000Y-114934286D01*
X153864571Y-115077143D01*
X153864571Y-115434286D01*
X153936000Y-115577143D01*
X154007429Y-115648572D01*
X154150286Y-115720000D01*
X154293143Y-115720000D01*
X154507429Y-115648572D01*
X155364571Y-114791429D01*
X155364571Y-115720000D01*
X153864571Y-116648571D02*
X153864571Y-116791428D01*
X153936000Y-116934285D01*
X154007429Y-117005714D01*
X154150286Y-117077143D01*
X154436000Y-117148571D01*
X154793143Y-117148571D01*
X155078857Y-117077143D01*
X155221714Y-117005714D01*
X155293143Y-116934285D01*
X155364571Y-116791428D01*
X155364571Y-116648571D01*
X155293143Y-116505714D01*
X155221714Y-116434285D01*
X155078857Y-116362857D01*
X154793143Y-116291428D01*
X154436000Y-116291428D01*
X154150286Y-116362857D01*
X154007429Y-116434285D01*
X153936000Y-116505714D01*
X153864571Y-116648571D01*
X155364571Y-118577142D02*
X155364571Y-117719999D01*
X155364571Y-118148571D02*
X153864571Y-118148571D01*
X154078857Y-118005714D01*
X154221714Y-117862856D01*
X154293143Y-117719999D01*
X154507429Y-119434285D02*
X154436000Y-119291427D01*
X154364571Y-119219999D01*
X154221714Y-119148570D01*
X154150286Y-119148570D01*
X154007429Y-119219999D01*
X153936000Y-119291427D01*
X153864571Y-119434285D01*
X153864571Y-119719999D01*
X153936000Y-119862856D01*
X154007429Y-119934285D01*
X154150286Y-120005713D01*
X154221714Y-120005713D01*
X154364571Y-119934285D01*
X154436000Y-119862856D01*
X154507429Y-119719999D01*
X154507429Y-119434285D01*
X154578857Y-119291427D01*
X154650286Y-119219999D01*
X154793143Y-119148570D01*
X155078857Y-119148570D01*
X155221714Y-119219999D01*
X155293143Y-119291427D01*
X155364571Y-119434285D01*
X155364571Y-119719999D01*
X155293143Y-119862856D01*
X155221714Y-119934285D01*
X155078857Y-120005713D01*
X154793143Y-120005713D01*
X154650286Y-119934285D01*
X154578857Y-119862856D01*
X154507429Y-119719999D01*
X149030571Y-98291430D02*
X150030571Y-98577144D01*
X149316286Y-98862858D01*
X150030571Y-99148573D01*
X149030571Y-99434287D01*
X149959143Y-99934287D02*
X150030571Y-100077144D01*
X150030571Y-100362859D01*
X149959143Y-100505716D01*
X149816286Y-100577144D01*
X149744857Y-100577144D01*
X149602000Y-100505716D01*
X149530571Y-100362859D01*
X149530571Y-100148573D01*
X149459143Y-100005716D01*
X149316286Y-99934287D01*
X149244857Y-99934287D01*
X149102000Y-100005716D01*
X149030571Y-100148573D01*
X149030571Y-100362859D01*
X149102000Y-100505716D01*
X148673429Y-101148573D02*
X148602000Y-101220002D01*
X148530571Y-101362859D01*
X148530571Y-101720002D01*
X148602000Y-101862859D01*
X148673429Y-101934288D01*
X148816286Y-102005716D01*
X148959143Y-102005716D01*
X149173429Y-101934288D01*
X150030571Y-101077145D01*
X150030571Y-102005716D01*
X149173429Y-102862859D02*
X149102000Y-102720001D01*
X149030571Y-102648573D01*
X148887714Y-102577144D01*
X148816286Y-102577144D01*
X148673429Y-102648573D01*
X148602000Y-102720001D01*
X148530571Y-102862859D01*
X148530571Y-103148573D01*
X148602000Y-103291430D01*
X148673429Y-103362859D01*
X148816286Y-103434287D01*
X148887714Y-103434287D01*
X149030571Y-103362859D01*
X149102000Y-103291430D01*
X149173429Y-103148573D01*
X149173429Y-102862859D01*
X149244857Y-102720001D01*
X149316286Y-102648573D01*
X149459143Y-102577144D01*
X149744857Y-102577144D01*
X149887714Y-102648573D01*
X149959143Y-102720001D01*
X150030571Y-102862859D01*
X150030571Y-103148573D01*
X149959143Y-103291430D01*
X149887714Y-103362859D01*
X149744857Y-103434287D01*
X149459143Y-103434287D01*
X149316286Y-103362859D01*
X149244857Y-103291430D01*
X149173429Y-103148573D01*
X150030571Y-104862858D02*
X150030571Y-104005715D01*
X150030571Y-104434287D02*
X148530571Y-104434287D01*
X148744857Y-104291430D01*
X148887714Y-104148572D01*
X148959143Y-104005715D01*
X148673429Y-105434286D02*
X148602000Y-105505715D01*
X148530571Y-105648572D01*
X148530571Y-106005715D01*
X148602000Y-106148572D01*
X148673429Y-106220001D01*
X148816286Y-106291429D01*
X148959143Y-106291429D01*
X149173429Y-106220001D01*
X150030571Y-105362858D01*
X150030571Y-106291429D01*
X148530571Y-108505714D02*
X149602000Y-108505714D01*
X149816286Y-108434286D01*
X149959143Y-108291429D01*
X150030571Y-108077143D01*
X150030571Y-107934286D01*
X150030571Y-109434286D02*
X149959143Y-109291428D01*
X149887714Y-109220000D01*
X149744857Y-109148571D01*
X149316286Y-109148571D01*
X149173429Y-109220000D01*
X149102000Y-109291428D01*
X149030571Y-109434286D01*
X149030571Y-109648571D01*
X149102000Y-109791428D01*
X149173429Y-109862857D01*
X149316286Y-109934286D01*
X149744857Y-109934286D01*
X149887714Y-109862857D01*
X149959143Y-109791428D01*
X150030571Y-109648571D01*
X150030571Y-109434286D01*
X150030571Y-110577143D02*
X149030571Y-110577143D01*
X148530571Y-110577143D02*
X148602000Y-110505714D01*
X148673429Y-110577143D01*
X148602000Y-110648571D01*
X148530571Y-110577143D01*
X148673429Y-110577143D01*
X149030571Y-111291429D02*
X150030571Y-111291429D01*
X149173429Y-111291429D02*
X149102000Y-111362857D01*
X149030571Y-111505715D01*
X149030571Y-111720000D01*
X149102000Y-111862857D01*
X149244857Y-111934286D01*
X150030571Y-111934286D01*
X149959143Y-113220000D02*
X150030571Y-113077143D01*
X150030571Y-112791429D01*
X149959143Y-112648572D01*
X149816286Y-112577143D01*
X149244857Y-112577143D01*
X149102000Y-112648572D01*
X149030571Y-112791429D01*
X149030571Y-113077143D01*
X149102000Y-113220000D01*
X149244857Y-113291429D01*
X149387714Y-113291429D01*
X149530571Y-112577143D01*
X150030571Y-113934286D02*
X149030571Y-113934286D01*
X149316286Y-113934286D02*
X149173429Y-114005714D01*
X149102000Y-114077143D01*
X149030571Y-114220000D01*
X149030571Y-114362857D01*
X149030571Y-115862857D02*
X150030571Y-116220000D01*
X149030571Y-116577142D01*
X148530571Y-117434285D02*
X148530571Y-117577142D01*
X148602000Y-117719999D01*
X148673429Y-117791428D01*
X148816286Y-117862857D01*
X149102000Y-117934285D01*
X149459143Y-117934285D01*
X149744857Y-117862857D01*
X149887714Y-117791428D01*
X149959143Y-117719999D01*
X150030571Y-117577142D01*
X150030571Y-117434285D01*
X149959143Y-117291428D01*
X149887714Y-117219999D01*
X149744857Y-117148571D01*
X149459143Y-117077142D01*
X149102000Y-117077142D01*
X148816286Y-117148571D01*
X148673429Y-117219999D01*
X148602000Y-117291428D01*
X148530571Y-117434285D01*
X149887714Y-118577142D02*
X149959143Y-118648570D01*
X150030571Y-118577142D01*
X149959143Y-118505713D01*
X149887714Y-118577142D01*
X150030571Y-118577142D01*
X148673429Y-119219999D02*
X148602000Y-119291428D01*
X148530571Y-119434285D01*
X148530571Y-119791428D01*
X148602000Y-119934285D01*
X148673429Y-120005714D01*
X148816286Y-120077142D01*
X148959143Y-120077142D01*
X149173429Y-120005714D01*
X150030571Y-119148571D01*
X150030571Y-120077142D01*
X153682000Y-42799143D02*
X153610571Y-42656286D01*
X153610571Y-42442000D01*
X153682000Y-42227715D01*
X153824857Y-42084857D01*
X153967714Y-42013429D01*
X154253429Y-41942000D01*
X154467714Y-41942000D01*
X154753429Y-42013429D01*
X154896286Y-42084857D01*
X155039143Y-42227715D01*
X155110571Y-42442000D01*
X155110571Y-42584857D01*
X155039143Y-42799143D01*
X154967714Y-42870572D01*
X154467714Y-42870572D01*
X154467714Y-42584857D01*
X155110571Y-43513429D02*
X153610571Y-43513429D01*
X155110571Y-44370572D01*
X153610571Y-44370572D01*
X155110571Y-45084858D02*
X153610571Y-45084858D01*
X153610571Y-45442001D01*
X153682000Y-45656286D01*
X153824857Y-45799144D01*
X153967714Y-45870572D01*
X154253429Y-45942001D01*
X154467714Y-45942001D01*
X154753429Y-45870572D01*
X154896286Y-45799144D01*
X155039143Y-45656286D01*
X155110571Y-45442001D01*
X155110571Y-45084858D01*
X148530571Y-43727715D02*
X148530571Y-43013429D01*
X149244857Y-42942000D01*
X149173429Y-43013429D01*
X149102000Y-43156286D01*
X149102000Y-43513429D01*
X149173429Y-43656286D01*
X149244857Y-43727715D01*
X149387714Y-43799143D01*
X149744857Y-43799143D01*
X149887714Y-43727715D01*
X149959143Y-43656286D01*
X150030571Y-43513429D01*
X150030571Y-43156286D01*
X149959143Y-43013429D01*
X149887714Y-42942000D01*
X149030571Y-44299143D02*
X150030571Y-44656286D01*
X149030571Y-45013428D01*
X153682000Y-160909143D02*
X153610571Y-160766286D01*
X153610571Y-160552000D01*
X153682000Y-160337715D01*
X153824857Y-160194857D01*
X153967714Y-160123429D01*
X154253429Y-160052000D01*
X154467714Y-160052000D01*
X154753429Y-160123429D01*
X154896286Y-160194857D01*
X155039143Y-160337715D01*
X155110571Y-160552000D01*
X155110571Y-160694857D01*
X155039143Y-160909143D01*
X154967714Y-160980572D01*
X154467714Y-160980572D01*
X154467714Y-160694857D01*
X155110571Y-161623429D02*
X153610571Y-161623429D01*
X155110571Y-162480572D01*
X153610571Y-162480572D01*
X155110571Y-163194858D02*
X153610571Y-163194858D01*
X153610571Y-163552001D01*
X153682000Y-163766286D01*
X153824857Y-163909144D01*
X153967714Y-163980572D01*
X154253429Y-164052001D01*
X154467714Y-164052001D01*
X154753429Y-163980572D01*
X154896286Y-163909144D01*
X155039143Y-163766286D01*
X155110571Y-163552001D01*
X155110571Y-163194858D01*
X148530571Y-161837715D02*
X148530571Y-161123429D01*
X149244857Y-161052000D01*
X149173429Y-161123429D01*
X149102000Y-161266286D01*
X149102000Y-161623429D01*
X149173429Y-161766286D01*
X149244857Y-161837715D01*
X149387714Y-161909143D01*
X149744857Y-161909143D01*
X149887714Y-161837715D01*
X149959143Y-161766286D01*
X150030571Y-161623429D01*
X150030571Y-161266286D01*
X149959143Y-161123429D01*
X149887714Y-161052000D01*
X149030571Y-162409143D02*
X150030571Y-162766286D01*
X149030571Y-163123428D01*
M02*
