G04 #@! TF.FileFunction,Legend,Bot*
%FSLAX46Y46*%
G04 Gerber Fmt 4.6, Leading zero omitted, Abs format (unit mm)*
G04 Created by KiCad (PCBNEW 4.0.4-stable) date 01/07/18 11:53:15*
%MOMM*%
%LPD*%
G01*
G04 APERTURE LIST*
%ADD10C,0.100000*%
%ADD11C,0.300000*%
%ADD12C,0.200000*%
G04 APERTURE END LIST*
D10*
D11*
X154856571Y-103662856D02*
X153356571Y-103662856D01*
X154856571Y-104305713D02*
X154070857Y-104305713D01*
X153928000Y-104234284D01*
X153856571Y-104091427D01*
X153856571Y-103877142D01*
X153928000Y-103734284D01*
X153999429Y-103662856D01*
X153856571Y-104805713D02*
X153856571Y-105377142D01*
X153356571Y-105019999D02*
X154642286Y-105019999D01*
X154785143Y-105091427D01*
X154856571Y-105234285D01*
X154856571Y-105377142D01*
X153856571Y-105662856D02*
X153856571Y-106234285D01*
X153356571Y-105877142D02*
X154642286Y-105877142D01*
X154785143Y-105948570D01*
X154856571Y-106091428D01*
X154856571Y-106234285D01*
X153856571Y-106734285D02*
X155356571Y-106734285D01*
X153928000Y-106734285D02*
X153856571Y-106877142D01*
X153856571Y-107162856D01*
X153928000Y-107305713D01*
X153999429Y-107377142D01*
X154142286Y-107448571D01*
X154570857Y-107448571D01*
X154713714Y-107377142D01*
X154785143Y-107305713D01*
X154856571Y-107162856D01*
X154856571Y-106877142D01*
X154785143Y-106734285D01*
X154785143Y-108019999D02*
X154856571Y-108162856D01*
X154856571Y-108448571D01*
X154785143Y-108591428D01*
X154642286Y-108662856D01*
X154570857Y-108662856D01*
X154428000Y-108591428D01*
X154356571Y-108448571D01*
X154356571Y-108234285D01*
X154285143Y-108091428D01*
X154142286Y-108019999D01*
X154070857Y-108019999D01*
X153928000Y-108091428D01*
X153856571Y-108234285D01*
X153856571Y-108448571D01*
X153928000Y-108591428D01*
X154713714Y-109305714D02*
X154785143Y-109377142D01*
X154856571Y-109305714D01*
X154785143Y-109234285D01*
X154713714Y-109305714D01*
X154856571Y-109305714D01*
X153928000Y-109305714D02*
X153999429Y-109377142D01*
X154070857Y-109305714D01*
X153999429Y-109234285D01*
X153928000Y-109305714D01*
X154070857Y-109305714D01*
X153285143Y-111091428D02*
X155213714Y-109805714D01*
X153285143Y-112662857D02*
X155213714Y-111377143D01*
X153856571Y-113805715D02*
X155070857Y-113805715D01*
X155213714Y-113734286D01*
X155285143Y-113662858D01*
X155356571Y-113520001D01*
X155356571Y-113305715D01*
X155285143Y-113162858D01*
X154785143Y-113805715D02*
X154856571Y-113662858D01*
X154856571Y-113377144D01*
X154785143Y-113234286D01*
X154713714Y-113162858D01*
X154570857Y-113091429D01*
X154142286Y-113091429D01*
X153999429Y-113162858D01*
X153928000Y-113234286D01*
X153856571Y-113377144D01*
X153856571Y-113662858D01*
X153928000Y-113805715D01*
X154856571Y-114520001D02*
X153856571Y-114520001D01*
X153356571Y-114520001D02*
X153428000Y-114448572D01*
X153499429Y-114520001D01*
X153428000Y-114591429D01*
X153356571Y-114520001D01*
X153499429Y-114520001D01*
X153856571Y-115020001D02*
X153856571Y-115591430D01*
X153356571Y-115234287D02*
X154642286Y-115234287D01*
X154785143Y-115305715D01*
X154856571Y-115448573D01*
X154856571Y-115591430D01*
X154856571Y-116091430D02*
X153356571Y-116091430D01*
X154856571Y-116734287D02*
X154070857Y-116734287D01*
X153928000Y-116662858D01*
X153856571Y-116520001D01*
X153856571Y-116305716D01*
X153928000Y-116162858D01*
X153999429Y-116091430D01*
X153856571Y-118091430D02*
X154856571Y-118091430D01*
X153856571Y-117448573D02*
X154642286Y-117448573D01*
X154785143Y-117520001D01*
X154856571Y-117662859D01*
X154856571Y-117877144D01*
X154785143Y-118020001D01*
X154713714Y-118091430D01*
X154856571Y-118805716D02*
X153356571Y-118805716D01*
X153928000Y-118805716D02*
X153856571Y-118948573D01*
X153856571Y-119234287D01*
X153928000Y-119377144D01*
X153999429Y-119448573D01*
X154142286Y-119520002D01*
X154570857Y-119520002D01*
X154713714Y-119448573D01*
X154785143Y-119377144D01*
X154856571Y-119234287D01*
X154856571Y-118948573D01*
X154785143Y-118805716D01*
X154713714Y-120162859D02*
X154785143Y-120234287D01*
X154856571Y-120162859D01*
X154785143Y-120091430D01*
X154713714Y-120162859D01*
X154856571Y-120162859D01*
X154785143Y-121520002D02*
X154856571Y-121377145D01*
X154856571Y-121091431D01*
X154785143Y-120948573D01*
X154713714Y-120877145D01*
X154570857Y-120805716D01*
X154142286Y-120805716D01*
X153999429Y-120877145D01*
X153928000Y-120948573D01*
X153856571Y-121091431D01*
X153856571Y-121377145D01*
X153928000Y-121520002D01*
X154856571Y-122377145D02*
X154785143Y-122234287D01*
X154713714Y-122162859D01*
X154570857Y-122091430D01*
X154142286Y-122091430D01*
X153999429Y-122162859D01*
X153928000Y-122234287D01*
X153856571Y-122377145D01*
X153856571Y-122591430D01*
X153928000Y-122734287D01*
X153999429Y-122805716D01*
X154142286Y-122877145D01*
X154570857Y-122877145D01*
X154713714Y-122805716D01*
X154785143Y-122734287D01*
X154856571Y-122591430D01*
X154856571Y-122377145D01*
X154856571Y-123520002D02*
X153856571Y-123520002D01*
X153999429Y-123520002D02*
X153928000Y-123591430D01*
X153856571Y-123734288D01*
X153856571Y-123948573D01*
X153928000Y-124091430D01*
X154070857Y-124162859D01*
X154856571Y-124162859D01*
X154070857Y-124162859D02*
X153928000Y-124234288D01*
X153856571Y-124377145D01*
X153856571Y-124591430D01*
X153928000Y-124734288D01*
X154070857Y-124805716D01*
X154856571Y-124805716D01*
X153285143Y-126591430D02*
X155213714Y-125305716D01*
X154856571Y-127091431D02*
X153856571Y-127091431D01*
X153999429Y-127091431D02*
X153928000Y-127162859D01*
X153856571Y-127305717D01*
X153856571Y-127520002D01*
X153928000Y-127662859D01*
X154070857Y-127734288D01*
X154856571Y-127734288D01*
X154070857Y-127734288D02*
X153928000Y-127805717D01*
X153856571Y-127948574D01*
X153856571Y-128162859D01*
X153928000Y-128305717D01*
X154070857Y-128377145D01*
X154856571Y-128377145D01*
X154856571Y-129305717D02*
X154785143Y-129162859D01*
X154713714Y-129091431D01*
X154570857Y-129020002D01*
X154142286Y-129020002D01*
X153999429Y-129091431D01*
X153928000Y-129162859D01*
X153856571Y-129305717D01*
X153856571Y-129520002D01*
X153928000Y-129662859D01*
X153999429Y-129734288D01*
X154142286Y-129805717D01*
X154570857Y-129805717D01*
X154713714Y-129734288D01*
X154785143Y-129662859D01*
X154856571Y-129520002D01*
X154856571Y-129305717D01*
X154856571Y-130662860D02*
X154785143Y-130520002D01*
X154713714Y-130448574D01*
X154570857Y-130377145D01*
X154142286Y-130377145D01*
X153999429Y-130448574D01*
X153928000Y-130520002D01*
X153856571Y-130662860D01*
X153856571Y-130877145D01*
X153928000Y-131020002D01*
X153999429Y-131091431D01*
X154142286Y-131162860D01*
X154570857Y-131162860D01*
X154713714Y-131091431D01*
X154785143Y-131020002D01*
X154856571Y-130877145D01*
X154856571Y-130662860D01*
X153856571Y-131805717D02*
X155356571Y-131805717D01*
X153928000Y-131805717D02*
X153856571Y-131948574D01*
X153856571Y-132234288D01*
X153928000Y-132377145D01*
X153999429Y-132448574D01*
X154142286Y-132520003D01*
X154570857Y-132520003D01*
X154713714Y-132448574D01*
X154785143Y-132377145D01*
X154856571Y-132234288D01*
X154856571Y-131948574D01*
X154785143Y-131805717D01*
X154785143Y-133734288D02*
X154856571Y-133591431D01*
X154856571Y-133305717D01*
X154785143Y-133162860D01*
X154642286Y-133091431D01*
X154070857Y-133091431D01*
X153928000Y-133162860D01*
X153856571Y-133305717D01*
X153856571Y-133591431D01*
X153928000Y-133734288D01*
X154070857Y-133805717D01*
X154213714Y-133805717D01*
X154356571Y-133091431D01*
X154856571Y-135091431D02*
X153356571Y-135091431D01*
X154785143Y-135091431D02*
X154856571Y-134948574D01*
X154856571Y-134662860D01*
X154785143Y-134520002D01*
X154713714Y-134448574D01*
X154570857Y-134377145D01*
X154142286Y-134377145D01*
X153999429Y-134448574D01*
X153928000Y-134520002D01*
X153856571Y-134662860D01*
X153856571Y-134948574D01*
X153928000Y-135091431D01*
X153285143Y-136877145D02*
X155213714Y-135591431D01*
X154856571Y-138091432D02*
X154856571Y-137377146D01*
X153356571Y-137377146D01*
X154070857Y-138591432D02*
X154070857Y-139091432D01*
X154856571Y-139305718D02*
X154856571Y-138591432D01*
X153356571Y-138591432D01*
X153356571Y-139305718D01*
X154856571Y-139948575D02*
X153356571Y-139948575D01*
X153356571Y-140305718D01*
X153428000Y-140520003D01*
X153570857Y-140662861D01*
X153713714Y-140734289D01*
X153999429Y-140805718D01*
X154213714Y-140805718D01*
X154499429Y-140734289D01*
X154642286Y-140662861D01*
X154785143Y-140520003D01*
X154856571Y-140305718D01*
X154856571Y-139948575D01*
X154285143Y-141448575D02*
X154285143Y-142591432D01*
X154070857Y-143805718D02*
X154070857Y-143305718D01*
X154856571Y-143305718D02*
X153356571Y-143305718D01*
X153356571Y-144020004D01*
X154856571Y-144591432D02*
X153856571Y-144591432D01*
X153356571Y-144591432D02*
X153428000Y-144520003D01*
X153499429Y-144591432D01*
X153428000Y-144662860D01*
X153356571Y-144591432D01*
X153499429Y-144591432D01*
X154856571Y-145305718D02*
X153856571Y-145305718D01*
X154142286Y-145305718D02*
X153999429Y-145377146D01*
X153928000Y-145448575D01*
X153856571Y-145591432D01*
X153856571Y-145734289D01*
X154785143Y-146805717D02*
X154856571Y-146662860D01*
X154856571Y-146377146D01*
X154785143Y-146234289D01*
X154642286Y-146162860D01*
X154070857Y-146162860D01*
X153928000Y-146234289D01*
X153856571Y-146377146D01*
X153856571Y-146662860D01*
X153928000Y-146805717D01*
X154070857Y-146877146D01*
X154213714Y-146877146D01*
X154356571Y-146162860D01*
X153856571Y-147520003D02*
X155356571Y-147520003D01*
X153928000Y-147520003D02*
X153856571Y-147662860D01*
X153856571Y-147948574D01*
X153928000Y-148091431D01*
X153999429Y-148162860D01*
X154142286Y-148234289D01*
X154570857Y-148234289D01*
X154713714Y-148162860D01*
X154785143Y-148091431D01*
X154856571Y-147948574D01*
X154856571Y-147662860D01*
X154785143Y-147520003D01*
X154856571Y-149091432D02*
X154785143Y-148948574D01*
X154642286Y-148877146D01*
X153356571Y-148877146D01*
X154856571Y-150305717D02*
X154070857Y-150305717D01*
X153928000Y-150234288D01*
X153856571Y-150091431D01*
X153856571Y-149805717D01*
X153928000Y-149662860D01*
X154785143Y-150305717D02*
X154856571Y-150162860D01*
X154856571Y-149805717D01*
X154785143Y-149662860D01*
X154642286Y-149591431D01*
X154499429Y-149591431D01*
X154356571Y-149662860D01*
X154285143Y-149805717D01*
X154285143Y-150162860D01*
X154213714Y-150305717D01*
X154785143Y-151662860D02*
X154856571Y-151520003D01*
X154856571Y-151234289D01*
X154785143Y-151091431D01*
X154713714Y-151020003D01*
X154570857Y-150948574D01*
X154142286Y-150948574D01*
X153999429Y-151020003D01*
X153928000Y-151091431D01*
X153856571Y-151234289D01*
X153856571Y-151520003D01*
X153928000Y-151662860D01*
X154785143Y-152877145D02*
X154856571Y-152734288D01*
X154856571Y-152448574D01*
X154785143Y-152305717D01*
X154642286Y-152234288D01*
X154070857Y-152234288D01*
X153928000Y-152305717D01*
X153856571Y-152448574D01*
X153856571Y-152734288D01*
X153928000Y-152877145D01*
X154070857Y-152948574D01*
X154213714Y-152948574D01*
X154356571Y-152234288D01*
D12*
X151892000Y-52578000D02*
X155194000Y-52578000D01*
X151892000Y-40132000D02*
X151892000Y-52578000D01*
X151130000Y-52578000D02*
X149352000Y-52578000D01*
X151130000Y-85598000D02*
X151130000Y-52578000D01*
X149098000Y-85598000D02*
X151130000Y-85598000D01*
X152908000Y-85598000D02*
X154940000Y-85598000D01*
X152908000Y-118618000D02*
X152908000Y-85598000D01*
X154940000Y-118618000D02*
X152908000Y-118618000D01*
X151130000Y-118618000D02*
X149098000Y-118618000D01*
X151130000Y-151638000D02*
X151130000Y-118618000D01*
X148844000Y-151638000D02*
X151130000Y-151638000D01*
X151892000Y-151638000D02*
X154940000Y-151638000D01*
X151892000Y-157988000D02*
X151892000Y-151638000D01*
D11*
X155039143Y-49412287D02*
X155110571Y-49626573D01*
X155110571Y-49983716D01*
X155039143Y-50126573D01*
X154967714Y-50198002D01*
X154824857Y-50269430D01*
X154682000Y-50269430D01*
X154539143Y-50198002D01*
X154467714Y-50126573D01*
X154396286Y-49983716D01*
X154324857Y-49698002D01*
X154253429Y-49555144D01*
X154182000Y-49483716D01*
X154039143Y-49412287D01*
X153896286Y-49412287D01*
X153753429Y-49483716D01*
X153682000Y-49555144D01*
X153610571Y-49698002D01*
X153610571Y-50055144D01*
X153682000Y-50269430D01*
X154110571Y-50698001D02*
X154110571Y-51269430D01*
X153610571Y-50912287D02*
X154896286Y-50912287D01*
X155039143Y-50983715D01*
X155110571Y-51126573D01*
X155110571Y-51269430D01*
X155039143Y-52340858D02*
X155110571Y-52198001D01*
X155110571Y-51912287D01*
X155039143Y-51769430D01*
X154896286Y-51698001D01*
X154324857Y-51698001D01*
X154182000Y-51769430D01*
X154110571Y-51912287D01*
X154110571Y-52198001D01*
X154182000Y-52340858D01*
X154324857Y-52412287D01*
X154467714Y-52412287D01*
X154610571Y-51698001D01*
X154110571Y-52912287D02*
X155110571Y-53269430D01*
X154110571Y-53626572D01*
X155039143Y-54769429D02*
X155110571Y-54626572D01*
X155110571Y-54340858D01*
X155039143Y-54198001D01*
X154896286Y-54126572D01*
X154324857Y-54126572D01*
X154182000Y-54198001D01*
X154110571Y-54340858D01*
X154110571Y-54626572D01*
X154182000Y-54769429D01*
X154324857Y-54840858D01*
X154467714Y-54840858D01*
X154610571Y-54126572D01*
X154324857Y-57126572D02*
X154396286Y-57340858D01*
X154467714Y-57412286D01*
X154610571Y-57483715D01*
X154824857Y-57483715D01*
X154967714Y-57412286D01*
X155039143Y-57340858D01*
X155110571Y-57198000D01*
X155110571Y-56626572D01*
X153610571Y-56626572D01*
X153610571Y-57126572D01*
X153682000Y-57269429D01*
X153753429Y-57340858D01*
X153896286Y-57412286D01*
X154039143Y-57412286D01*
X154182000Y-57340858D01*
X154253429Y-57269429D01*
X154324857Y-57126572D01*
X154324857Y-56626572D01*
X155110571Y-58769429D02*
X154324857Y-58769429D01*
X154182000Y-58698000D01*
X154110571Y-58555143D01*
X154110571Y-58269429D01*
X154182000Y-58126572D01*
X155039143Y-58769429D02*
X155110571Y-58626572D01*
X155110571Y-58269429D01*
X155039143Y-58126572D01*
X154896286Y-58055143D01*
X154753429Y-58055143D01*
X154610571Y-58126572D01*
X154539143Y-58269429D01*
X154539143Y-58626572D01*
X154467714Y-58769429D01*
X155110571Y-59483715D02*
X154110571Y-59483715D01*
X154396286Y-59483715D02*
X154253429Y-59555143D01*
X154182000Y-59626572D01*
X154110571Y-59769429D01*
X154110571Y-59912286D01*
X154110571Y-60412286D02*
X155110571Y-60412286D01*
X154253429Y-60412286D02*
X154182000Y-60483714D01*
X154110571Y-60626572D01*
X154110571Y-60840857D01*
X154182000Y-60983714D01*
X154324857Y-61055143D01*
X155110571Y-61055143D01*
X155039143Y-62340857D02*
X155110571Y-62198000D01*
X155110571Y-61912286D01*
X155039143Y-61769429D01*
X154896286Y-61698000D01*
X154324857Y-61698000D01*
X154182000Y-61769429D01*
X154110571Y-61912286D01*
X154110571Y-62198000D01*
X154182000Y-62340857D01*
X154324857Y-62412286D01*
X154467714Y-62412286D01*
X154610571Y-61698000D01*
X154110571Y-62840857D02*
X154110571Y-63412286D01*
X153610571Y-63055143D02*
X154896286Y-63055143D01*
X155039143Y-63126571D01*
X155110571Y-63269429D01*
X155110571Y-63412286D01*
X154110571Y-63698000D02*
X154110571Y-64269429D01*
X153610571Y-63912286D02*
X154896286Y-63912286D01*
X155039143Y-63983714D01*
X155110571Y-64126572D01*
X155110571Y-64269429D01*
X153753429Y-65840857D02*
X153682000Y-65912286D01*
X153610571Y-66055143D01*
X153610571Y-66412286D01*
X153682000Y-66555143D01*
X153753429Y-66626572D01*
X153896286Y-66698000D01*
X154039143Y-66698000D01*
X154253429Y-66626572D01*
X155110571Y-65769429D01*
X155110571Y-66698000D01*
X153610571Y-67626571D02*
X153610571Y-67769428D01*
X153682000Y-67912285D01*
X153753429Y-67983714D01*
X153896286Y-68055143D01*
X154182000Y-68126571D01*
X154539143Y-68126571D01*
X154824857Y-68055143D01*
X154967714Y-67983714D01*
X155039143Y-67912285D01*
X155110571Y-67769428D01*
X155110571Y-67626571D01*
X155039143Y-67483714D01*
X154967714Y-67412285D01*
X154824857Y-67340857D01*
X154539143Y-67269428D01*
X154182000Y-67269428D01*
X153896286Y-67340857D01*
X153753429Y-67412285D01*
X153682000Y-67483714D01*
X153610571Y-67626571D01*
X155110571Y-69555142D02*
X155110571Y-68697999D01*
X155110571Y-69126571D02*
X153610571Y-69126571D01*
X153824857Y-68983714D01*
X153967714Y-68840856D01*
X154039143Y-68697999D01*
X154253429Y-70412285D02*
X154182000Y-70269427D01*
X154110571Y-70197999D01*
X153967714Y-70126570D01*
X153896286Y-70126570D01*
X153753429Y-70197999D01*
X153682000Y-70269427D01*
X153610571Y-70412285D01*
X153610571Y-70697999D01*
X153682000Y-70840856D01*
X153753429Y-70912285D01*
X153896286Y-70983713D01*
X153967714Y-70983713D01*
X154110571Y-70912285D01*
X154182000Y-70840856D01*
X154253429Y-70697999D01*
X154253429Y-70412285D01*
X154324857Y-70269427D01*
X154396286Y-70197999D01*
X154539143Y-70126570D01*
X154824857Y-70126570D01*
X154967714Y-70197999D01*
X155039143Y-70269427D01*
X155110571Y-70412285D01*
X155110571Y-70697999D01*
X155039143Y-70840856D01*
X154967714Y-70912285D01*
X154824857Y-70983713D01*
X154539143Y-70983713D01*
X154396286Y-70912285D01*
X154324857Y-70840856D01*
X154253429Y-70697999D01*
X149284571Y-49269430D02*
X150284571Y-49555144D01*
X149570286Y-49840858D01*
X150284571Y-50126573D01*
X149284571Y-50412287D01*
X150213143Y-50912287D02*
X150284571Y-51055144D01*
X150284571Y-51340859D01*
X150213143Y-51483716D01*
X150070286Y-51555144D01*
X149998857Y-51555144D01*
X149856000Y-51483716D01*
X149784571Y-51340859D01*
X149784571Y-51126573D01*
X149713143Y-50983716D01*
X149570286Y-50912287D01*
X149498857Y-50912287D01*
X149356000Y-50983716D01*
X149284571Y-51126573D01*
X149284571Y-51340859D01*
X149356000Y-51483716D01*
X148927429Y-52126573D02*
X148856000Y-52198002D01*
X148784571Y-52340859D01*
X148784571Y-52698002D01*
X148856000Y-52840859D01*
X148927429Y-52912288D01*
X149070286Y-52983716D01*
X149213143Y-52983716D01*
X149427429Y-52912288D01*
X150284571Y-52055145D01*
X150284571Y-52983716D01*
X149427429Y-53840859D02*
X149356000Y-53698001D01*
X149284571Y-53626573D01*
X149141714Y-53555144D01*
X149070286Y-53555144D01*
X148927429Y-53626573D01*
X148856000Y-53698001D01*
X148784571Y-53840859D01*
X148784571Y-54126573D01*
X148856000Y-54269430D01*
X148927429Y-54340859D01*
X149070286Y-54412287D01*
X149141714Y-54412287D01*
X149284571Y-54340859D01*
X149356000Y-54269430D01*
X149427429Y-54126573D01*
X149427429Y-53840859D01*
X149498857Y-53698001D01*
X149570286Y-53626573D01*
X149713143Y-53555144D01*
X149998857Y-53555144D01*
X150141714Y-53626573D01*
X150213143Y-53698001D01*
X150284571Y-53840859D01*
X150284571Y-54126573D01*
X150213143Y-54269430D01*
X150141714Y-54340859D01*
X149998857Y-54412287D01*
X149713143Y-54412287D01*
X149570286Y-54340859D01*
X149498857Y-54269430D01*
X149427429Y-54126573D01*
X150284571Y-55840858D02*
X150284571Y-54983715D01*
X150284571Y-55412287D02*
X148784571Y-55412287D01*
X148998857Y-55269430D01*
X149141714Y-55126572D01*
X149213143Y-54983715D01*
X148927429Y-56412286D02*
X148856000Y-56483715D01*
X148784571Y-56626572D01*
X148784571Y-56983715D01*
X148856000Y-57126572D01*
X148927429Y-57198001D01*
X149070286Y-57269429D01*
X149213143Y-57269429D01*
X149427429Y-57198001D01*
X150284571Y-56340858D01*
X150284571Y-57269429D01*
X148784571Y-59483714D02*
X149856000Y-59483714D01*
X150070286Y-59412286D01*
X150213143Y-59269429D01*
X150284571Y-59055143D01*
X150284571Y-58912286D01*
X150284571Y-60412286D02*
X150213143Y-60269428D01*
X150141714Y-60198000D01*
X149998857Y-60126571D01*
X149570286Y-60126571D01*
X149427429Y-60198000D01*
X149356000Y-60269428D01*
X149284571Y-60412286D01*
X149284571Y-60626571D01*
X149356000Y-60769428D01*
X149427429Y-60840857D01*
X149570286Y-60912286D01*
X149998857Y-60912286D01*
X150141714Y-60840857D01*
X150213143Y-60769428D01*
X150284571Y-60626571D01*
X150284571Y-60412286D01*
X150284571Y-61555143D02*
X149284571Y-61555143D01*
X148784571Y-61555143D02*
X148856000Y-61483714D01*
X148927429Y-61555143D01*
X148856000Y-61626571D01*
X148784571Y-61555143D01*
X148927429Y-61555143D01*
X149284571Y-62269429D02*
X150284571Y-62269429D01*
X149427429Y-62269429D02*
X149356000Y-62340857D01*
X149284571Y-62483715D01*
X149284571Y-62698000D01*
X149356000Y-62840857D01*
X149498857Y-62912286D01*
X150284571Y-62912286D01*
X150213143Y-64198000D02*
X150284571Y-64055143D01*
X150284571Y-63769429D01*
X150213143Y-63626572D01*
X150070286Y-63555143D01*
X149498857Y-63555143D01*
X149356000Y-63626572D01*
X149284571Y-63769429D01*
X149284571Y-64055143D01*
X149356000Y-64198000D01*
X149498857Y-64269429D01*
X149641714Y-64269429D01*
X149784571Y-63555143D01*
X150284571Y-64912286D02*
X149284571Y-64912286D01*
X149570286Y-64912286D02*
X149427429Y-64983714D01*
X149356000Y-65055143D01*
X149284571Y-65198000D01*
X149284571Y-65340857D01*
X149284571Y-66840857D02*
X150284571Y-67198000D01*
X149284571Y-67555142D01*
X148784571Y-68412285D02*
X148784571Y-68555142D01*
X148856000Y-68697999D01*
X148927429Y-68769428D01*
X149070286Y-68840857D01*
X149356000Y-68912285D01*
X149713143Y-68912285D01*
X149998857Y-68840857D01*
X150141714Y-68769428D01*
X150213143Y-68697999D01*
X150284571Y-68555142D01*
X150284571Y-68412285D01*
X150213143Y-68269428D01*
X150141714Y-68197999D01*
X149998857Y-68126571D01*
X149713143Y-68055142D01*
X149356000Y-68055142D01*
X149070286Y-68126571D01*
X148927429Y-68197999D01*
X148856000Y-68269428D01*
X148784571Y-68412285D01*
X150141714Y-69555142D02*
X150213143Y-69626570D01*
X150284571Y-69555142D01*
X150213143Y-69483713D01*
X150141714Y-69555142D01*
X150284571Y-69555142D01*
X148927429Y-70197999D02*
X148856000Y-70269428D01*
X148784571Y-70412285D01*
X148784571Y-70769428D01*
X148856000Y-70912285D01*
X148927429Y-70983714D01*
X149070286Y-71055142D01*
X149213143Y-71055142D01*
X149427429Y-70983714D01*
X150284571Y-70126571D01*
X150284571Y-71055142D01*
X153682000Y-42799143D02*
X153610571Y-42656286D01*
X153610571Y-42442000D01*
X153682000Y-42227715D01*
X153824857Y-42084857D01*
X153967714Y-42013429D01*
X154253429Y-41942000D01*
X154467714Y-41942000D01*
X154753429Y-42013429D01*
X154896286Y-42084857D01*
X155039143Y-42227715D01*
X155110571Y-42442000D01*
X155110571Y-42584857D01*
X155039143Y-42799143D01*
X154967714Y-42870572D01*
X154467714Y-42870572D01*
X154467714Y-42584857D01*
X155110571Y-43513429D02*
X153610571Y-43513429D01*
X155110571Y-44370572D01*
X153610571Y-44370572D01*
X155110571Y-45084858D02*
X153610571Y-45084858D01*
X153610571Y-45442001D01*
X153682000Y-45656286D01*
X153824857Y-45799144D01*
X153967714Y-45870572D01*
X154253429Y-45942001D01*
X154467714Y-45942001D01*
X154753429Y-45870572D01*
X154896286Y-45799144D01*
X155039143Y-45656286D01*
X155110571Y-45442001D01*
X155110571Y-45084858D01*
X148530571Y-43727715D02*
X148530571Y-43013429D01*
X149244857Y-42942000D01*
X149173429Y-43013429D01*
X149102000Y-43156286D01*
X149102000Y-43513429D01*
X149173429Y-43656286D01*
X149244857Y-43727715D01*
X149387714Y-43799143D01*
X149744857Y-43799143D01*
X149887714Y-43727715D01*
X149959143Y-43656286D01*
X150030571Y-43513429D01*
X150030571Y-43156286D01*
X149959143Y-43013429D01*
X149887714Y-42942000D01*
X149030571Y-44299143D02*
X150030571Y-44656286D01*
X149030571Y-45013428D01*
X153682000Y-160909143D02*
X153610571Y-160766286D01*
X153610571Y-160552000D01*
X153682000Y-160337715D01*
X153824857Y-160194857D01*
X153967714Y-160123429D01*
X154253429Y-160052000D01*
X154467714Y-160052000D01*
X154753429Y-160123429D01*
X154896286Y-160194857D01*
X155039143Y-160337715D01*
X155110571Y-160552000D01*
X155110571Y-160694857D01*
X155039143Y-160909143D01*
X154967714Y-160980572D01*
X154467714Y-160980572D01*
X154467714Y-160694857D01*
X155110571Y-161623429D02*
X153610571Y-161623429D01*
X155110571Y-162480572D01*
X153610571Y-162480572D01*
X155110571Y-163194858D02*
X153610571Y-163194858D01*
X153610571Y-163552001D01*
X153682000Y-163766286D01*
X153824857Y-163909144D01*
X153967714Y-163980572D01*
X154253429Y-164052001D01*
X154467714Y-164052001D01*
X154753429Y-163980572D01*
X154896286Y-163909144D01*
X155039143Y-163766286D01*
X155110571Y-163552001D01*
X155110571Y-163194858D01*
X148530571Y-161837715D02*
X148530571Y-161123429D01*
X149244857Y-161052000D01*
X149173429Y-161123429D01*
X149102000Y-161266286D01*
X149102000Y-161623429D01*
X149173429Y-161766286D01*
X149244857Y-161837715D01*
X149387714Y-161909143D01*
X149744857Y-161909143D01*
X149887714Y-161837715D01*
X149959143Y-161766286D01*
X150030571Y-161623429D01*
X150030571Y-161266286D01*
X149959143Y-161123429D01*
X149887714Y-161052000D01*
X149030571Y-162409143D02*
X150030571Y-162766286D01*
X149030571Y-163123428D01*
M02*
