G04 #@! TF.FileFunction,Soldermask,Top*
%FSLAX46Y46*%
G04 Gerber Fmt 4.6, Leading zero omitted, Abs format (unit mm)*
G04 Created by KiCad (PCBNEW 4.0.4-stable) date 01/07/18 11:22:15*
%MOMM*%
%LPD*%
G01*
G04 APERTURE LIST*
%ADD10C,0.100000*%
%ADD11R,2.100000X2.100000*%
%ADD12O,2.100000X2.100000*%
%ADD13R,2.000000X2.400000*%
%ADD14R,2.400000X2.000000*%
%ADD15R,2.448000X1.924000*%
%ADD16R,2.100000X2.400000*%
%ADD17R,2.900000X2.950000*%
G04 APERTURE END LIST*
D10*
D11*
X149352000Y-40132000D03*
D12*
X151892000Y-40132000D03*
X154432000Y-40132000D03*
D13*
X149860000Y-43212000D03*
X149860000Y-47212000D03*
D14*
X149892000Y-79248000D03*
X153892000Y-79248000D03*
X149892000Y-112268000D03*
X153892000Y-112268000D03*
X149892000Y-145288000D03*
X153892000Y-145288000D03*
D15*
X149352000Y-55118000D03*
X149352000Y-52578000D03*
X149352000Y-50038000D03*
X154940000Y-55118000D03*
X154940000Y-52578000D03*
X154940000Y-50038000D03*
X149098000Y-83058000D03*
X149098000Y-85598000D03*
X149098000Y-88138000D03*
X154940000Y-83058000D03*
X154940000Y-85598000D03*
X154940000Y-88138000D03*
X149098000Y-121158000D03*
X149098000Y-118618000D03*
X149098000Y-116078000D03*
X154940000Y-121158000D03*
X154940000Y-118618000D03*
X154940000Y-116078000D03*
X149098000Y-149098000D03*
X149098000Y-151638000D03*
X149098000Y-154178000D03*
X154940000Y-149098000D03*
X154940000Y-151638000D03*
X154940000Y-154178000D03*
D16*
X154432000Y-43212000D03*
X154432000Y-47212000D03*
X149860000Y-70136000D03*
X149860000Y-74136000D03*
X153924000Y-103664000D03*
X153924000Y-107664000D03*
X149860000Y-136176000D03*
X149860000Y-140176000D03*
D11*
X149352000Y-157988000D03*
D12*
X151892000Y-157988000D03*
X154432000Y-157988000D03*
D17*
X153416000Y-59451000D03*
X153416000Y-64501000D03*
X153416000Y-69611000D03*
X153416000Y-74661000D03*
X150368000Y-103139000D03*
X150368000Y-108189000D03*
X153416000Y-135651000D03*
X153416000Y-140701000D03*
M02*
