M48
;DRILL file {KiCad 4.0.4-stable} date 01/06/18 20:48:23
;FORMAT={-:-/ absolute / metric / decimal}
FMAT,2
METRIC,TZ
T1C0.400
T2C0.800
T3C1.000
%
G90
G05
M71
T1
X149.352Y-81.788
X151.257Y-144.272
X151.257Y-149.987
X151.892Y-55.626
X151.892Y-89.027
X151.892Y-120.777
X153.162Y-48.387
X153.162Y-51.562
X153.162Y-55.118
X153.162Y-83.058
X153.162Y-87.122
X153.162Y-115.062
X153.162Y-117.602
X153.162Y-120.142
X153.162Y-152.527
X153.416Y-149.098
X153.797Y-78.867
X155.067Y-144.272
T2
X149.951Y-60.122
X149.951Y-70.917
X149.951Y-93.142
X149.951Y-126.162
X150.622Y-61.722
X150.622Y-72.517
X150.622Y-94.742
X150.622Y-127.762
X153.122Y-61.722
X153.122Y-72.517
X153.122Y-94.742
X153.122Y-127.762
X153.793Y-63.322
X153.793Y-74.117
X153.793Y-96.342
X153.793Y-129.362
T3
X149.352Y-40.132
X149.352Y-157.988
X151.892Y-40.132
X151.892Y-157.988
X154.432Y-40.132
X154.432Y-157.988
T0
M30
